<svg xmlns="http://www.w3.org/2000/svg" xmlns:xlink="http://www.w3.org/1999/xlink" viewBox="0 0 257.99 350.98"><defs><style>.cls-1{fill:none;}.cls-2{fill:url(#Gradiente_sem_nome_5);}.cls-3{fill:url(#Gradiente_sem_nome_11);}.cls-4{clip-path:url(#clip-path);}.cls-5{fill:#293055;}.cls-6{font-size:18.51px;fill:#fff;font-family:Arial-BoldMT, Arial;font-weight:700;}.cls-7{letter-spacing:0em;}.cls-8{letter-spacing:0em;}.cls-9{letter-spacing:-0.07em;}.cls-10{letter-spacing:-0.02em;}.cls-11{letter-spacing:-0.07em;}.cls-12{letter-spacing:0em;}.cls-13{letter-spacing:-0.03em;}.cls-14{letter-spacing:0em;}.cls-15{letter-spacing:-0.01em;}.cls-16{letter-spacing:-0.06em;}</style><linearGradient id="Gradiente_sem_nome_5" x1="128.99" y1="-122.38" x2="128.99" y2="465.41" gradientTransform="translate(-46.5 304.48) rotate(-90)" gradientUnits="userSpaceOnUse"><stop offset="0" stop-color="#1f4788"/><stop offset="1" stop-color="#25244e"/></linearGradient><linearGradient id="Gradiente_sem_nome_11" x1="128.99" y1="89.64" x2="128.99" y2="285.68" gradientUnits="userSpaceOnUse"><stop offset="0" stop-color="#f9bf3b"/><stop offset="1" stop-color="#ac7f18"/></linearGradient><clipPath id="clip-path"><polygon class="cls-1" points="93.8 134.58 164.19 134.58 164.19 66.6 93.8 66.6 93.8 134.58 93.8 134.58"/></clipPath></defs><title>modelos serviços</title><g id="Camada_2" data-name="Camada 2"><rect class="cls-2" x="-21.01" y="97.18" width="300" height="156.62" rx="78.31" ry="78.31" transform="translate(304.48 46.5) rotate(90)"/><rect class="cls-3" x="72.75" y="48.42" width="112.48" height="112.48" rx="56.24" ry="56.24"/><g class="cls-4"><path class="cls-5" d="M108.25,133.57a.73.73,0,0,1-.6-.2,1.11,1.11,0,0,1-.8-1.21v-9H99.43a5.75,5.75,0,0,1-5.81-5.41V92.86a5.56,5.56,0,0,1,5.61-5.41h44.91a5.22,5.22,0,0,1,5.21,5.41v24.87a5.31,5.31,0,0,1-5,5.41H121.48l-12.43,10a1.52,1.52,0,0,1-.8.4Zm-9-43.31a2.84,2.84,0,0,0-2.81,2.6v24.87a2.89,2.89,0,0,0,3,2.6h8.82a1.51,1.51,0,0,1,1.4,1.41v7.42l10.43-8.63a1.2,1.2,0,0,1,.8-.2h23.46a2.62,2.62,0,0,0,2.21-2.6V92.86a2.37,2.37,0,0,0-2.41-2.6ZM158,101.49h-4.42a1.38,1.38,0,0,1-1.4-1.41,1.5,1.5,0,0,1,1.4-1.4H158a2.65,2.65,0,0,0,2.6-2.61V71.21A2.53,2.53,0,0,0,158,68.6H113.26a2.7,2.7,0,0,0-2.8,2.61V83.64a1.52,1.52,0,0,1-1.41,1.41,1.38,1.38,0,0,1-1.4-1.41V71.21a5.44,5.44,0,0,1,5.61-5.41H158a5.27,5.27,0,0,1,5.41,5.41V96.07a5.4,5.4,0,0,1-5.41,5.42Z"/></g><text class="cls-6" transform="translate(63.37 215.88)"><tspan class="cls-7">C</tspan><tspan class="cls-8" x="13.33" y="0">O</tspan><tspan class="cls-7" x="27.76" y="0">N</tspan><tspan x="41.09" y="0">S</tspan><tspan class="cls-7" x="53.43" y="0">U</tspan><tspan class="cls-9" x="66.76" y="0">L</tspan><tspan class="cls-10" x="76.77" y="0">T</tspan><tspan class="cls-8" x="87.76" y="0">O</tspan><tspan class="cls-7" x="102.19" y="0">R</tspan><tspan class="cls-8" x="115.52" y="0">I</tspan><tspan class="cls-11" x="120.7" y="0">A</tspan><tspan class="cls-8"><tspan x="0" y="22.21">T</tspan><tspan class="cls-7" x="11.34" y="22.21">R</tspan><tspan x="24.67" y="22.21">I</tspan><tspan class="cls-7" x="29.85" y="22.21">BU</tspan><tspan x="56.5" y="22.21">T</tspan><tspan class="cls-7" x="67.85" y="22.21">ÁR</tspan><tspan x="94.5" y="22.21">I</tspan><tspan class="cls-11" x="99.68" y="22.21">A</tspan><tspan class="cls-12" x="111.79" y="22.21" xml:space="preserve">  E</tspan></tspan></text><text class="cls-6"><tspan class="cls-8" x="63.37" y="260.3">T</tspan><tspan class="cls-7" x="74.71" y="260.3">R</tspan><tspan class="cls-13" x="88.04" y="260.3">A</tspan><tspan class="cls-14" x="100.89" y="260.3">B</tspan><tspan class="cls-15" x="114.32" y="260.3">A</tspan><tspan class="cls-8" x="127.54" y="260.3">L</tspan><tspan class="cls-7" x="138.88" y="260.3">H</tspan><tspan class="cls-8" x="152.21" y="260.3">I</tspan><tspan class="cls-12" x="157.39" y="260.3">S</tspan><tspan class="cls-16" x="169.74" y="260.3">T</tspan><tspan x="179.86" y="260.3">A</tspan></text></g></svg>