<svg xmlns="http://www.w3.org/2000/svg" xmlns:xlink="http://www.w3.org/1999/xlink" viewBox="0 0 156.62 300"><defs><style>.cls-1{fill:none;}.cls-2{fill:url(#linear-gradient);}.cls-3{fill:url(#linear-gradient-2);}.cls-4{clip-path:url(#clip-path);}.cls-5{fill:#233656;}.cls-6{isolation:isolate;font-size:22.3px;fill:#fff;font-family:Arial-BoldMT, Arial;font-weight:700;}</style><linearGradient id="linear-gradient" x1="78.31" y1="448.17" x2="78.31" y2="-139.62" gradientTransform="matrix(1, 0, 0, -1, 0, 300.3)" gradientUnits="userSpaceOnUse"><stop offset="0" stop-color="#1f4788"/><stop offset="1" stop-color="#25244e"/></linearGradient><linearGradient id="linear-gradient-2" x1="78.31" y1="236.15" x2="78.31" y2="40.11" gradientTransform="matrix(1, 0, 0, -1, 0, 300.3)" gradientUnits="userSpaceOnUse"><stop offset="0" stop-color="#f9bf3b"/><stop offset="1" stop-color="#ac7f18"/></linearGradient><clipPath id="clip-path"><polygon class="cls-1" points="48.44 108.78 111.31 108.78 111.31 38.46 48.44 38.46 48.44 108.78 48.44 108.78"/></clipPath></defs><title>Asset 5</title><g id="Layer_2" data-name="Layer 2"><g id="Layer_1-2" data-name="Layer 1"><g id="Camada_2" data-name="Camada 2"><path class="cls-2" d="M156.62,78.31V221.69A78.31,78.31,0,0,1,78.31,300h0A78.31,78.31,0,0,1,0,221.69V78.31A78.31,78.31,0,0,1,78.31,0h0A78.31,78.31,0,0,1,156.62,78.31Z"/><path class="cls-3" d="M78.31,22.93h0a56.24,56.24,0,0,1,56.24,56.24h0a56.24,56.24,0,0,1-56.24,56.24h0A56.24,56.24,0,0,1,22.07,79.17h0A56.24,56.24,0,0,1,78.31,22.93Z"/><g class="cls-4"><path class="cls-5" d="M87,44.28l-.36,1.06-.53,1a1.27,1.27,0,0,0,.36,1.06l2.11,1.23a7.48,7.48,0,0,0,0,2.83l-1.94,1.23a.86.86,0,0,0-.35,1.06l.53,1,.49,1.16a.73.73,0,0,0,.84.6.86.86,0,0,0,.21-.07l2.29-.53a10.48,10.48,0,0,0,1.94,1.94l-.53,2.29a1.1,1.1,0,0,0,.71,1.06l1,.35,1.06.53c.35.18.71,0,1.06-.35l1.23-2.12a6.52,6.52,0,0,0,2.64,0l1.5,2.12a.86.86,0,0,0,1.06.35l1.06-.53,1-.53A.84.84,0,0,0,105,60l-.53-2.3a6.16,6.16,0,0,0,1.77-1.93l2.46.52a1.27,1.27,0,0,0,1.06-.7l.35-1.06.35-1.06c.18-.35,0-.7-.35-1l-1.94-1.24a7.43,7.43,0,0,0,0-2.82l1.94-1.23a.86.86,0,0,0,.35-1.06L110.13,45l-.53-1c-.17-.36-.7-.71-1.06-.53l-2.28.53a6.82,6.82,0,0,0-2.12-1.77l.71-2.46a1.08,1.08,0,0,0-.71-1.06l-1.06-.35-1-.53a.86.86,0,0,0-1.06.35l-1.41,2.11a7.86,7.86,0,0,0-2.82,0l-1-1.93A1.09,1.09,0,0,0,94.45,38l-1.13.53L92.26,39c-.35,0-.53.53-.53,1.06l.71,2.29a6.89,6.89,0,0,0-1.94,1.94l-2.29-.53c-.71-.18-1.06,0-1.23.53Zm9.51,1.41A4.58,4.58,0,0,1,102.59,48l.09.21A4.4,4.4,0,0,1,100.57,54a2.17,2.17,0,0,1-.35.15,4.59,4.59,0,0,1-6.08-2.27l-.09-.2A4.76,4.76,0,0,1,96.52,45.69ZM74.68,75.51a1.36,1.36,0,0,1-1.6,1l-.17,0a1.46,1.46,0,0,1-1-1.76,1.57,1.57,0,0,1,1.76-1.06,1.42,1.42,0,0,1,1.07,1.71.13.13,0,0,1,0,.06Zm-10.93,32.4L87.53,99.8a2.1,2.1,0,0,0,1.41-1.94V88.7a21.22,21.22,0,0,0,4.93-14.1,20.73,20.73,0,0,0-19-19.92,20.47,20.47,0,0,0-22,18.83c0,.06,0,.11,0,.17v.53a17,17,0,0,1-1.58,6.53,36.5,36.5,0,0,1-2.64,4.58,1.88,1.88,0,0,0,1.58,2.82h2.64V98a3.53,3.53,0,0,0,3.53,3.52H62v5a1.49,1.49,0,0,0,1.54,1.43l.22,0Zm.89-26.09a1.27,1.27,0,0,1-1.73-.45l0-.08h0A1.3,1.3,0,0,1,65.13,80l0,0a1.25,1.25,0,0,1-.43,1.71Zm4.57,3.53a1.43,1.43,0,0,1-1.76.53c-.35-.18-.35-.36-.53-.53-.17-.53-.35-.88,0-1.41a1.44,1.44,0,0,1,1.77-.53,1.41,1.41,0,0,1,.53,1.92Zm4.23,1.94a1.25,1.25,0,0,1-1-.53,1.34,1.34,0,0,1-.36-.71,1.37,1.37,0,0,1,1.41-1.23h0a1.25,1.25,0,0,1,.39,2.47A1.28,1.28,0,0,1,73.44,87.29Zm6.17-1.59a1.42,1.42,0,0,1-1.94-.53h0a1.37,1.37,0,0,1,.53-1.76,1.57,1.57,0,0,1,1.94.35A1.61,1.61,0,0,1,79.61,85.7ZM84,81.12a1.42,1.42,0,0,1-1.94.53h0l-.53-.53a1.57,1.57,0,0,1,0-1.24A1.38,1.38,0,0,1,84,81.12Zm1.59-6a1.26,1.26,0,0,1-1.27,1.25h-.14A1.63,1.63,0,0,1,83,75.83c0-.18-.17-.53-.17-.71A1.29,1.29,0,0,1,84,73.71h.23a1.39,1.39,0,0,1,1.41,1.37ZM83.83,69a1.31,1.31,0,0,1-.35,1.76l-6.87,4.93A4.26,4.26,0,0,1,75,78.12a3.41,3.41,0,0,1-4.58-1.23,3.2,3.2,0,0,1,1.22-4.37h0a2.79,2.79,0,0,1,2.82-.35l7.4-3.53a1.56,1.56,0,0,1,1.93.36ZM60.94,75.12A12.4,12.4,0,0,1,73.41,62.79h0A13.06,13.06,0,0,1,81.72,66c-.35.18-.53.18-.7.35l-2.47,1.2a8.74,8.74,0,0,0-5.11-1.59,9.17,9.17,0,0,0-9.33,9v.33a1.55,1.55,0,0,1-1.59,1.41,1.57,1.57,0,0,1-1.58-1.56v0Z"/></g><text class="cls-6" transform="translate(30.72 215.97)">UPWORK</text></g></g></g></svg>