<svg xmlns="http://www.w3.org/2000/svg" xmlns:xlink="http://www.w3.org/1999/xlink" viewBox="0 0 156.62 300"><defs><style>.cls-1{fill:none;}.cls-2{fill:url(#linear-gradient);}.cls-3{fill:url(#linear-gradient-2);}.cls-4{clip-path:url(#clip-path);}.cls-5{fill:#293055;}.cls-10,.cls-11,.cls-12,.cls-13,.cls-14,.cls-15,.cls-6,.cls-7,.cls-8,.cls-9{isolation:isolate;}.cls-10,.cls-11,.cls-12,.cls-13,.cls-14,.cls-15,.cls-7,.cls-8,.cls-9{font-size:18.51px;fill:#fff;font-family:Arial-BoldMT, Arial;font-weight:700;}.cls-8{letter-spacing:-0.09em;}.cls-9{letter-spacing:-0.02em;}.cls-10{letter-spacing:-0.11em;}.cls-11{letter-spacing:-0.07em;}.cls-12{letter-spacing:-0.05em;}.cls-13{letter-spacing:-0.02em;}.cls-14{letter-spacing:-0.06em;}.cls-15{letter-spacing:-0.04em;}</style><linearGradient id="linear-gradient" x1="78.31" y1="448.17" x2="78.31" y2="-139.62" gradientTransform="matrix(1, 0, 0, -1, 0, 300.3)" gradientUnits="userSpaceOnUse"><stop offset="0" stop-color="#1f4788"/><stop offset="1" stop-color="#25244e"/></linearGradient><linearGradient id="linear-gradient-2" x1="78.31" y1="236.15" x2="78.31" y2="40.11" gradientTransform="matrix(1, 0, 0, -1, 0, 300.3)" gradientUnits="userSpaceOnUse"><stop offset="0" stop-color="#f9bf3b"/><stop offset="1" stop-color="#ac7f18"/></linearGradient><clipPath id="clip-path"><polygon class="cls-1" points="43.12 109.09 113.51 109.09 113.51 41.11 43.12 41.11 43.12 109.09 43.12 109.09"/></clipPath></defs><title>Asset 4</title><g id="Layer_2" data-name="Layer 2"><g id="Layer_1-2" data-name="Layer 1"><g id="Camada_2" data-name="Camada 2"><path class="cls-2" d="M156.62,78.31V221.69A78.31,78.31,0,0,1,78.31,300h0A78.31,78.31,0,0,1,0,221.69V78.31A78.31,78.31,0,0,1,78.31,0h0A78.31,78.31,0,0,1,156.62,78.31Z"/><path class="cls-3" d="M78.31,22.93h0a56.24,56.24,0,0,1,56.24,56.24h0a56.24,56.24,0,0,1-56.24,56.24h0A56.24,56.24,0,0,1,22.07,79.17h0A56.24,56.24,0,0,1,78.31,22.93Z"/><g class="cls-4"><path class="cls-5" d="M57.57,108.08a.74.74,0,0,1-.6-.2,1.11,1.11,0,0,1-.8-1.21v-9H48.75a5.74,5.74,0,0,1-5.81-5.41V67.37A5.56,5.56,0,0,1,48.55,62H93.46a5.21,5.21,0,0,1,5.21,5.23v25a5.31,5.31,0,0,1-5,5.41H70.8l-12.43,10a1.52,1.52,0,0,1-.8.4Zm-9-43.31a2.84,2.84,0,0,0-2.81,2.6V92.24a2.88,2.88,0,0,0,3,2.6h8.82A1.52,1.52,0,0,1,59,96.25v7.42L69.41,95a1.19,1.19,0,0,1,.8-.2H93.67a2.61,2.61,0,0,0,2.21-2.6V67.37a2.38,2.38,0,0,0-2.13-2.59H48.57ZM107.32,76H102.9a1.38,1.38,0,0,1-1.4-1.36v0a1.51,1.51,0,0,1,1.4-1.4h4.42a2.65,2.65,0,0,0,2.6-2.61V45.72a2.53,2.53,0,0,0-2.45-2.61H62.58a2.7,2.7,0,0,0-2.8,2.6h0V58.15a1.51,1.51,0,0,1-1.41,1.41A1.38,1.38,0,0,1,57,58.2V45.72a5.44,5.44,0,0,1,5.47-5.41h44.88a5.27,5.27,0,0,1,5.41,5.13V70.58A5.4,5.4,0,0,1,107.35,76Z"/></g><g class="cls-6"><text class="cls-7" transform="translate(12.69 190.39)">C</text><text class="cls-7" transform="translate(26.02 190.39)">O</text><text class="cls-7" transform="translate(40.45 190.39)">N</text><text class="cls-7" transform="translate(53.78 190.39)">S</text><text class="cls-7" transform="translate(66.12 190.39)">U</text><text class="cls-8" transform="translate(79.45 190.39)">L</text><text class="cls-9" transform="translate(89.46 190.39)">T</text><text class="cls-7" transform="translate(100.45 190.39)">O</text><text class="cls-7" transform="translate(114.88 190.39)">R</text><text class="cls-7" transform="translate(128.21 190.39)">I</text><text class="cls-10" transform="translate(133.39 190.39)">A</text><text class="cls-7" transform="translate(12.69 212.6)">T</text><text class="cls-7" transform="translate(24.03 212.6)">R</text><text class="cls-7" transform="translate(37.36 212.6)">I</text><text class="cls-7" transform="translate(42.54 212.6)">BU</text><text class="cls-7" transform="translate(69.19 212.6)">T</text><text class="cls-7" transform="translate(80.54 212.6)">ÁR</text><text class="cls-7" transform="translate(107.19 212.6)">I</text><text class="cls-10" transform="translate(112.37 212.6)">A</text><text class="cls-7" transform="translate(124.48 212.6)"><tspan xml:space="preserve">  E</tspan></text></g><g class="cls-6"><text class="cls-7" transform="translate(12.69 234.81)">T</text><text class="cls-7" transform="translate(24.03 234.81)">R</text><text class="cls-11" transform="translate(37.36 234.81)">A</text><text class="cls-7" transform="translate(50.21 234.81)">B</text><text class="cls-12" transform="translate(63.64 234.81)">A</text><text class="cls-13" transform="translate(76.86 234.81)">L</text><text class="cls-7" transform="translate(88.2 234.81)">H</text><text class="cls-7" transform="translate(101.53 234.81)">I</text><text class="cls-7" transform="translate(106.71 234.81)">S</text><text class="cls-14" transform="translate(119.06 234.81)">T</text><text class="cls-15" transform="translate(129.18 234.81)">A</text></g></g></g></g></svg>