<svg xmlns="http://www.w3.org/2000/svg" xmlns:xlink="http://www.w3.org/1999/xlink" viewBox="0 0 156.62 300"><defs><style>.cls-1,.cls-6{fill:none;}.cls-2{fill:url(#linear-gradient);}.cls-3{fill:url(#linear-gradient-2);}.cls-4{clip-path:url(#clip-path);}.cls-5{fill:#293055;}.cls-6{stroke:#fff;stroke-linecap:round;stroke-linejoin:round;stroke-width:0.27px;}.cls-7,.cls-8{isolation:isolate;}.cls-8{font-size:18.51px;fill:#fff;font-family:Arial-BoldMT, Arial;font-weight:700;}.cls-9{letter-spacing:-0.02em;}.cls-10{letter-spacing:-0.04em;}.cls-11{letter-spacing:-0.07em;}</style><linearGradient id="linear-gradient" x1="78.31" y1="448.17" x2="78.31" y2="-139.62" gradientTransform="matrix(1, 0, 0, -1, 0, 300.3)" gradientUnits="userSpaceOnUse"><stop offset="0" stop-color="#1f4788"/><stop offset="1" stop-color="#25244e"/></linearGradient><linearGradient id="linear-gradient-2" x1="78.31" y1="236.15" x2="78.31" y2="40.11" gradientTransform="matrix(1, 0, 0, -1, 0, 300.3)" gradientUnits="userSpaceOnUse"><stop offset="0" stop-color="#f9bf3b"/><stop offset="1" stop-color="#ac7f18"/></linearGradient><clipPath id="clip-path"><polygon class="cls-1" points="49.14 113.92 107.55 113.92 107.55 43.57 49.14 43.57 49.14 113.92 49.14 113.92"/></clipPath></defs><title>Asset 1</title><g id="Layer_2" data-name="Layer 2"><g id="Layer_1-2" data-name="Layer 1"><g id="Camada_2" data-name="Camada 2"><path class="cls-2" d="M156.62,78.31V221.69A78.31,78.31,0,0,1,78.31,300h0A78.31,78.31,0,0,1,0,221.69V78.31A78.31,78.31,0,0,1,78.31,0h0A78.31,78.31,0,0,1,156.62,78.31Z"/><path class="cls-3" d="M78.31,22.93h0a56.24,56.24,0,0,1,56.24,56.24h0a56.24,56.24,0,0,1-56.24,56.24h0A56.24,56.24,0,0,1,22.07,79.17h0A56.24,56.24,0,0,1,78.31,22.93Z"/><g class="cls-4"><polygon class="cls-5" points="77.26 82.38 97.01 82.38 97.01 84.54 77.26 84.54 77.26 82.38 77.26 82.38"/><polygon class="cls-6" points="77.26 82.38 97.01 82.38 97.01 84.54 77.26 84.54 77.26 82.38 77.26 82.38"/><polygon class="cls-5" points="77.26 86.15 97.01 86.15 97.01 88.31 77.26 88.31 77.26 86.15 77.26 86.15"/><polygon class="cls-6" points="77.26 86.15 97.01 86.15 97.01 88.31 77.26 88.31 77.26 86.15 77.26 86.15"/><polygon class="cls-5" points="77.26 93.97 97.01 93.97 97.01 96.13 77.26 96.13 77.26 93.97 77.26 93.97"/><polygon class="cls-6" points="77.26 93.97 97.01 93.97 97.01 96.13 77.26 96.13 77.26 93.97 77.26 93.97"/><polygon class="cls-5" points="77.26 97.74 97.01 97.74 97.01 99.9 77.26 99.9 77.26 97.74 77.26 97.74"/><polygon class="cls-6" points="77.26 97.74 97.01 97.74 97.01 99.9 77.26 99.9 77.26 97.74 77.26 97.74"/><path class="cls-5" d="M64,78.61v4H59.14V88H64v6.2H59.14v5.12H64v4.31l9.74-6.73L65.32,91l8.39-5.66L64,78.61Zm2.17,15.63L70,96.94l-3.78,2.42V97.21H61.32V96.4h4.87V94.24Zm-4.86-8.35V84.81h4.87V82.65L70,85.35,66.19,88V85.89Z"/><path class="cls-6" d="M64,78.61v4H59.14V88H64v6.2H59.14v5.12H64v4.31l9.74-6.73L65.32,91l8.39-5.66L64,78.61Zm2.17,15.63L70,96.94l-3.78,2.42V97.21H61.32V96.4h4.87V94.24Zm-4.86-8.35V84.81h4.87V82.65L70,85.35,66.19,88V85.89Z"/><polygon class="cls-5" points="82.13 67.29 84.29 67.29 84.29 70.79 82.13 70.79 82.13 67.29 82.13 67.29"/><polygon class="cls-6" points="82.13 67.29 84.29 67.29 84.29 70.79 82.13 70.79 82.13 67.29 82.13 67.29"/><polygon class="cls-5" points="86.19 59.2 88.35 59.2 88.35 70.79 86.19 70.79 86.19 59.2 86.19 59.2"/><polygon class="cls-6" points="86.19 59.2 88.35 59.2 88.35 70.79 86.19 70.79 86.19 59.2 86.19 59.2"/><polygon class="cls-5" points="90.24 53.54 92.41 53.54 92.41 70.79 90.24 70.79 90.24 53.54 90.24 53.54"/><polygon class="cls-6" points="90.24 53.54 92.41 53.54 92.41 70.79 90.24 70.79 90.24 53.54 90.24 53.54"/><polygon class="cls-5" points="94.3 64.59 96.46 64.59 96.46 70.79 94.3 70.79 94.3 64.59 94.3 64.59"/><polygon class="cls-6" points="94.3 64.59 96.46 64.59 96.46 70.79 94.3 70.79 94.3 64.59 94.3 64.59"/><path class="cls-5" d="M68.07,51.12A10.92,10.92,0,1,0,67.41,73h.66a10.92,10.92,0,0,0,0-21.83Zm0,19.67a8.77,8.77,0,0,1-8.93-8.59v0a8.79,8.79,0,1,1,17.58,0A8.69,8.69,0,0,1,68.07,70.79Z"/><polygon class="cls-5" points="68.61 61.36 68.61 55.97 66.45 55.97 66.45 63.52 74.29 63.52 74.29 61.36 68.61 61.36 68.61 61.36"/><polygon class="cls-6" points="68.61 61.36 68.61 55.97 66.45 55.97 66.45 63.52 74.29 63.52 74.29 61.36 68.61 61.36 68.61 61.36"/><path class="cls-5" d="M106.74,97.21l-2.42-1.89V59.74l2.43-1.88V43H49.41V57.86l2.43,1.88V95.32l-2.43,1.89V112h57.33Zm-2.16,12.66h-53V98.28l1.62-1.07L54,96.4V58.66l-.82-.8-1.62-1.08V45.19h53V56.78L103,57.86l-.81.8V96.4l.81.81,1.63,1.07Z"/><path class="cls-6" d="M106.74,97.21l-2.42-1.89V59.74l2.43-1.88V43H49.41V57.86l2.43,1.88V95.32l-2.43,1.89V112h57.33Zm-2.16,12.66h-53V98.28l1.62-1.07L54,96.4V58.66l-.82-.8-1.62-1.08V45.19h53V56.78L103,57.86l-.81.8V96.4l.81.81,1.63,1.07Z"/></g><g class="cls-7"><text class="cls-8" transform="translate(17.14 200.79)">AU<tspan class="cls-9" x="26.73" y="0">T</tspan><tspan x="37.71" y="0">OMAÇÃO</tspan></text><text class="cls-8" transform="translate(6.84 223)">DE<tspan class="cls-10" x="25.71" y="0"> </tspan><tspan class="cls-11" x="30.17" y="0">A</tspan><tspan x="42.16" y="0">TIVIDADES</tspan></text></g></g></g></g></svg>