<svg xmlns="http://www.w3.org/2000/svg" xmlns:xlink="http://www.w3.org/1999/xlink" viewBox="0 0 156.62 300"><defs><style>.cls-1{fill:none;}.cls-2{fill:url(#linear-gradient);}.cls-3{fill:url(#linear-gradient-2);}.cls-4{clip-path:url(#clip-path);}.cls-5{fill:#233656;}.cls-6,.cls-7{isolation:isolate;}.cls-7{font-size:18.51px;fill:#fff;font-family:Arial-BoldMT, Arial;font-weight:700;}.cls-8{letter-spacing:-0.02em;}.cls-9{letter-spacing:0em;}</style><linearGradient id="linear-gradient" x1="78.31" y1="448.17" x2="78.31" y2="-139.62" gradientTransform="matrix(1, 0, 0, -1, 0, 300.3)" gradientUnits="userSpaceOnUse"><stop offset="0" stop-color="#1f4788"/><stop offset="1" stop-color="#25244e"/></linearGradient><linearGradient id="linear-gradient-2" x1="78.31" y1="236.15" x2="78.31" y2="40.11" gradientTransform="matrix(1, 0, 0, -1, 0, 300.3)" gradientUnits="userSpaceOnUse"><stop offset="0" stop-color="#f9bf3b"/><stop offset="1" stop-color="#ac7f18"/></linearGradient><clipPath id="clip-path"><polygon class="cls-1" points="53.61 112.08 108.96 112.08 108.96 40.82 53.61 40.82 53.61 112.08 53.61 112.08"/></clipPath></defs><title>Asset 1</title><g id="Layer_2" data-name="Layer 2"><g id="Layer_1-2" data-name="Layer 1"><g id="Camada_2" data-name="Camada 2"><path class="cls-2" d="M156.62,78.31V221.69A78.31,78.31,0,0,1,78.31,300h0A78.31,78.31,0,0,1,0,221.69V78.31A78.31,78.31,0,0,1,78.31,0h0A78.31,78.31,0,0,1,156.62,78.31Z"/><path class="cls-3" d="M78.31,22.93h0a56.24,56.24,0,0,1,56.24,56.24h0a56.24,56.24,0,0,1-56.24,56.24h0A56.24,56.24,0,0,1,22.07,79.17h0A56.24,56.24,0,0,1,78.31,22.93Z"/><g class="cls-4"><path class="cls-5" d="M56,40.23a2.27,2.27,0,0,0-2.36,2.18v66.18A2.27,2.27,0,0,0,55.78,111h50.44a2.26,2.26,0,0,0,2.35-2.19V42.59a2.27,2.27,0,0,0-2.18-2.36H56Zm2.36,4.71h45.55v61.27H58.32Zm4.52,2.36a2.5,2.5,0,0,0-2.16,2.35v9.43a2.27,2.27,0,0,0,2.18,2.36h36.3a2.29,2.29,0,0,0,2.36-2.2V49.65a2.26,2.26,0,0,0-2.19-2.35H62.84ZM65.39,52H96.8v4.71H65.38ZM62.84,66.93a2.5,2.5,0,0,0-2.16,2.16V74a2.27,2.27,0,0,0,2.18,2.36h6.46a2.26,2.26,0,0,0,2.35-2.19V69.09a2.23,2.23,0,0,0-2.3-2.16H62.84Zm14.92,0a2.5,2.5,0,0,0-2.16,2.16V74a2.27,2.27,0,0,0,2.18,2.36h6.46a2.26,2.26,0,0,0,2.35-2.19V69.09a2.23,2.23,0,0,0-2.3-2.16H77.76Zm14.92,0a2.18,2.18,0,0,0-2.16,2.16V74a2.27,2.27,0,0,0,2.18,2.36h6.46a2.27,2.27,0,0,0,2.36-2.18V69.09a2.24,2.24,0,0,0-2.32-2.16H92.68ZM62.84,80.29a2.18,2.18,0,0,0-2.16,2.16v4.91a2.26,2.26,0,0,0,2.17,2.35h6.47a2.26,2.26,0,0,0,2.35-2.17V82.45a2.22,2.22,0,0,0-2.28-2.16H62.84Zm14.92,0a2.18,2.18,0,0,0-2.16,2.16v4.91a2.26,2.26,0,0,0,2.19,2.35h6.45a2.26,2.26,0,0,0,2.35-2.17V82.45a2.22,2.22,0,0,0-2.28-2.16H77.76Zm14.92,0a2.48,2.48,0,0,0-2.16,2.16v4.91a2.26,2.26,0,0,0,2.19,2.35h6.45a2.27,2.27,0,0,0,2.36-2.18V82.45a2.23,2.23,0,0,0-2.3-2.16H92.68ZM62.84,93.64a2.18,2.18,0,0,0-2.16,2.16v4.91a2.27,2.27,0,0,0,2.18,2.36h6.46a2.26,2.26,0,0,0,2.35-2.19V95.8a2.22,2.22,0,0,0-2.28-2.16H62.84Zm14.92,0A2.18,2.18,0,0,0,75.6,95.8v4.91a2.27,2.27,0,0,0,2.18,2.36h6.46a2.26,2.26,0,0,0,2.35-2.19V95.8a2.22,2.22,0,0,0-2.28-2.16H77.76Zm14.92,0a2.5,2.5,0,0,0-2.16,2.16v4.91a2.27,2.27,0,0,0,2.18,2.36h6.46a2.29,2.29,0,0,0,2.36-2.2V95.8a2.23,2.23,0,0,0-2.3-2.16H92.68Z"/></g><g class="cls-6"><text class="cls-7" transform="translate(16.11 190.39)">COMPLIANCE</text><text class="cls-7" transform="translate(36.16 212.6)">FISCA<tspan class="cls-8" x="55.53" y="0">L</tspan><tspan class="cls-9" x="66.5" y="0" xml:space="preserve"> E</tspan></text></g><g class="cls-6"><text class="cls-7" transform="translate(30.51 234.81)">CONTÁBI<tspan class="cls-8" x="84.32" y="0">L</tspan></text></g></g></g></g></svg>