<svg xmlns="http://www.w3.org/2000/svg" viewBox="0 0 200 200"><defs><style>.cls-1{fill:#bfbfbf;}</style></defs><title>Ícones</title><g id="Camada_2" data-name="Camada 2"><path class="cls-1" d="M142.09,135.34V106.06c0-15.69-8.37-23-19.54-23-9,0-13,5-15.29,8.44V84.27h-17c.23,4.8,0,51.07,0,51.07h17V106.82a11.51,11.51,0,0,1,.56-4.13,9.27,9.27,0,0,1,8.7-6.21c6.15,0,8.6,4.68,8.6,11.54v27.33h17Zm-69.69-58c5.92,0,9.6-3.93,9.6-8.83s-3.69-8.82-9.49-8.82-9.6,3.81-9.6,8.82,3.68,8.83,9.38,8.83ZM100,175a75,75,0,1,1,75-75A75,75,0,0,1,100,175ZM80.89,135.34V84.27h-17v51.07Z"/></g></svg>