<svg xmlns="http://www.w3.org/2000/svg" xmlns:xlink="http://www.w3.org/1999/xlink" viewBox="0 0 257.99 350.98"><defs><style>.cls-1{fill:none;}.cls-2{fill:url(#Gradiente_sem_nome_5);}.cls-3{fill:url(#Gradiente_sem_nome_11);}.cls-4{clip-path:url(#clip-path);}.cls-5{fill:#233656;}.cls-6{font-size:18.51px;fill:#fff;font-family:Arial-BoldMT, Arial;font-weight:700;}</style><linearGradient id="Gradiente_sem_nome_5" x1="128.99" y1="-122.38" x2="128.99" y2="465.41" gradientTransform="translate(-46.5 304.48) rotate(-90)" gradientUnits="userSpaceOnUse"><stop offset="0" stop-color="#1f4788"/><stop offset="1" stop-color="#25244e"/></linearGradient><linearGradient id="Gradiente_sem_nome_11" x1="128.99" y1="89.64" x2="128.99" y2="285.68" gradientUnits="userSpaceOnUse"><stop offset="0" stop-color="#f9bf3b"/><stop offset="1" stop-color="#ac7f18"/></linearGradient><clipPath id="clip-path"><polygon class="cls-1" points="104.29 137.57 159.64 137.57 159.64 66.31 104.29 66.31 104.29 137.57 104.29 137.57"/></clipPath></defs><title>modelos serviços</title><g id="Camada_2" data-name="Camada 2"><rect class="cls-2" x="-21.01" y="97.18" width="300" height="156.62" rx="78.31" ry="78.31" transform="translate(304.48 46.5) rotate(90)"/><rect class="cls-3" x="72.75" y="48.42" width="112.48" height="112.48" rx="56.24" ry="56.24"/><g class="cls-4"><path class="cls-5" d="M106.64,65.72a2.27,2.27,0,0,0-2.36,2.36v66a2.27,2.27,0,0,0,2.36,2.36H156.9a2.27,2.27,0,0,0,2.35-2.36v-66a2.27,2.27,0,0,0-2.35-2.36ZM109,70.43h45.55V131.7H109Zm4.52,2.36a2.5,2.5,0,0,0-2.16,2.35v9.43a2.27,2.27,0,0,0,2.35,2.36h36.13a2.28,2.28,0,0,0,2.36-2.36V75.14a2.27,2.27,0,0,0-2.36-2.35H113.51Zm2.55,4.71h31.41v4.71H116.06Zm-2.55,14.92a2.5,2.5,0,0,0-2.16,2.16v4.91a2.27,2.27,0,0,0,2.35,2.36H120a2.27,2.27,0,0,0,2.35-2.36V94.58A2.23,2.23,0,0,0,120,92.42h-6.48Zm14.92,0a2.5,2.5,0,0,0-2.16,2.16v4.91a2.27,2.27,0,0,0,2.36,2.36h6.28a2.27,2.27,0,0,0,2.35-2.36V94.58a2.23,2.23,0,0,0-2.35-2.16h-6.48Zm14.92,0a2.18,2.18,0,0,0-2.16,2.16v4.91a2.27,2.27,0,0,0,2.36,2.36h6.28a2.27,2.27,0,0,0,2.36-2.36V94.58a2.24,2.24,0,0,0-2.36-2.16h-6.48Zm-29.84,13.36a2.18,2.18,0,0,0-2.16,2.16v4.91a2.26,2.26,0,0,0,2.35,2.35H120a2.26,2.26,0,0,0,2.35-2.35v-4.91a2.22,2.22,0,0,0-2.35-2.16h-6.48Zm14.92,0a2.18,2.18,0,0,0-2.16,2.16v4.91a2.27,2.27,0,0,0,2.36,2.35h6.28a2.26,2.26,0,0,0,2.35-2.35v-4.91a2.22,2.22,0,0,0-2.35-2.16h-6.48Zm14.92,0a2.49,2.49,0,0,0-2.16,2.16v4.91a2.27,2.27,0,0,0,2.36,2.35h6.28a2.27,2.27,0,0,0,2.36-2.35v-4.91a2.23,2.23,0,0,0-2.36-2.16h-6.48Zm-29.84,13.35a2.18,2.18,0,0,0-2.16,2.16v4.91a2.27,2.27,0,0,0,2.35,2.36H120a2.27,2.27,0,0,0,2.35-2.36v-4.91a2.22,2.22,0,0,0-2.35-2.16h-6.48Zm14.92,0a2.18,2.18,0,0,0-2.16,2.16v4.91a2.27,2.27,0,0,0,2.36,2.36h6.28a2.27,2.27,0,0,0,2.35-2.36v-4.91a2.22,2.22,0,0,0-2.35-2.16h-6.48Zm14.92,0a2.5,2.5,0,0,0-2.16,2.16v4.91a2.27,2.27,0,0,0,2.36,2.36h6.28a2.28,2.28,0,0,0,2.36-2.36v-4.91a2.23,2.23,0,0,0-2.36-2.16h-6.48Z"/></g><text class="cls-6" transform="translate(66.79 215.88)">COMPLIANCE<tspan x="20.05" y="22.21">FISCAL E</tspan></text><text class="cls-6"><tspan x="81.19" y="260.3">CONTÁBIL</tspan></text></g></svg>