<svg xmlns="http://www.w3.org/2000/svg" xmlns:xlink="http://www.w3.org/1999/xlink" viewBox="0 0 257.99 350.98"><defs><style>.cls-1{fill:none;}.cls-2{fill:url(#Gradiente_sem_nome_5);}.cls-3{fill:url(#Gradiente_sem_nome_11);}.cls-4{clip-path:url(#clip-path);}.cls-5{fill:#233656;}.cls-6{font-size:18.51px;fill:#fff;font-family:Arial-BoldMT, Arial;font-weight:700;}.cls-7{letter-spacing:0em;}.cls-8{letter-spacing:0em;}.cls-9{letter-spacing:-0.07em;}.cls-10{letter-spacing:-0.02em;}.cls-11{letter-spacing:-0.07em;}</style><linearGradient id="Gradiente_sem_nome_5" x1="128.99" y1="-122.38" x2="128.99" y2="465.41" gradientTransform="translate(-46.5 304.48) rotate(-90)" gradientUnits="userSpaceOnUse"><stop offset="0" stop-color="#1f4788"/><stop offset="1" stop-color="#25244e"/></linearGradient><linearGradient id="Gradiente_sem_nome_11" x1="128.99" y1="89.64" x2="128.99" y2="285.68" gradientUnits="userSpaceOnUse"><stop offset="0" stop-color="#f9bf3b"/><stop offset="1" stop-color="#ac7f18"/></linearGradient><clipPath id="clip-path"><polygon class="cls-1" points="93.19 138.24 164.79 138.24 164.79 71.08 93.19 71.08 93.19 138.24 93.19 138.24"/></clipPath></defs><title>modelos serviços</title><g id="Camada_2" data-name="Camada 2"><rect class="cls-2" x="-21.01" y="97.18" width="300" height="156.62" rx="78.31" ry="78.31" transform="translate(304.48 46.5) rotate(90)"/><rect class="cls-3" x="72.75" y="48.42" width="112.48" height="112.48" rx="56.24" ry="56.24"/><g class="cls-4"><path class="cls-5" d="M114.29,83.56a2.61,2.61,0,0,1-2.56,2.57A2.65,2.65,0,0,1,109,83.56a2.69,2.69,0,0,1,2.76-2.77,2.66,2.66,0,0,1,2.56,2.77Z"/><path class="cls-5" d="M114.29,93.46A2.62,2.62,0,0,1,111.73,96,2.66,2.66,0,0,1,109,93.46a2.7,2.7,0,0,1,2.76-2.77,2.66,2.66,0,0,1,2.56,2.77Z"/><path class="cls-5" d="M111.73,100.6a2.66,2.66,0,0,1,2.56,2.77,2.61,2.61,0,0,1-2.56,2.57,2.65,2.65,0,0,1-2.76-2.57,2.69,2.69,0,0,1,2.76-2.77Z"/><path class="cls-5" d="M138.55,85.94H120.61a2.38,2.38,0,0,1,0-4.76h17.94a2.39,2.39,0,1,1,0,4.76Z"/><path class="cls-5" d="M138.55,95.84H120.61a2.29,2.29,0,0,1-2.37-2.38,2.45,2.45,0,0,1,2.37-2.57h17.94a2.62,2.62,0,0,1,2.57,2.57,2.45,2.45,0,0,1-2.57,2.38Z"/><path class="cls-5" d="M138.55,105.75H120.61a2.41,2.41,0,0,1-2.37-2.38,2.46,2.46,0,0,1,2.37-2.58h17.94a2.62,2.62,0,0,1,2.57,2.58,2.59,2.59,0,0,1-2.57,2.38Z"/><path class="cls-5" d="M111.73,109.91a2.61,2.61,0,0,1,2.56,2.57,2.66,2.66,0,0,1-2.56,2.77,2.69,2.69,0,0,1-2.76-2.77,2.65,2.65,0,0,1,2.76-2.57Z"/><path class="cls-5" d="M138.55,115.06H120.61a2.46,2.46,0,0,1-2.37-2.58,2.41,2.41,0,0,1,2.37-2.38h17.94a2.59,2.59,0,0,1,2.57,2.38,2.62,2.62,0,0,1-2.57,2.58Z"/><path class="cls-5" d="M164,82.17c0-8.71-3.16-11.88-7.3-11.88H107.59a7.42,7.42,0,0,0-7.3,7.33v47.14H93c0,10.9,4,12.48,9.08,12.48h43a7.47,7.47,0,0,0,7.5-7.33V82.17Zm-14.4,47.74a4.43,4.43,0,0,1-4.54,4.36c-3.94,0-5.91-.79-5.91-9.51h-35.9V77.62a4.39,4.39,0,0,1,4.34-4.36h44c-1.18,1.78-2,4.75-2,8.71v47.94Z"/></g><text class="cls-6" transform="translate(64.35 215.88)"><tspan class="cls-7">C</tspan><tspan class="cls-8" x="13.33" y="0">O</tspan><tspan class="cls-7" x="27.76" y="0">N</tspan><tspan x="41.09" y="0">S</tspan><tspan class="cls-7" x="53.43" y="0">U</tspan><tspan class="cls-9" x="66.76" y="0">L</tspan><tspan class="cls-10" x="76.77" y="0">T</tspan><tspan class="cls-8" x="87.76" y="0">O</tspan><tspan class="cls-7" x="102.19" y="0">R</tspan><tspan class="cls-8" x="115.52" y="0">I</tspan><tspan class="cls-11" x="120.7" y="0">A</tspan><tspan x="0" y="22.21">EMPRESARIAL</tspan></text><text class="cls-6"><tspan x="64.35" y="260.3">E GESTÃO DE</tspan><tspan x="64.35" y="282.51" xml:space="preserve">      RISCOS</tspan></text></g></svg>