<svg xmlns="http://www.w3.org/2000/svg" xmlns:xlink="http://www.w3.org/1999/xlink" viewBox="0 0 257.99 350.98"><defs><style>.cls-1,.cls-6{fill:none;}.cls-2{fill:url(#Gradiente_sem_nome_5);}.cls-3{fill:url(#Gradiente_sem_nome_11);}.cls-4{clip-path:url(#clip-path);}.cls-5{fill:#293055;}.cls-6{stroke:#fff;stroke-linecap:round;stroke-linejoin:round;stroke-width:0.27px;}.cls-7{font-size:18.51px;fill:#fff;font-family:Arial-BoldMT, Arial;font-weight:700;}</style><linearGradient id="Gradiente_sem_nome_5" x1="128.99" y1="-122.38" x2="128.99" y2="465.41" gradientTransform="translate(-46.5 304.48) rotate(-90)" gradientUnits="userSpaceOnUse"><stop offset="0" stop-color="#1f4788"/><stop offset="1" stop-color="#25244e"/></linearGradient><linearGradient id="Gradiente_sem_nome_11" x1="128.99" y1="89.64" x2="128.99" y2="285.68" gradientUnits="userSpaceOnUse"><stop offset="0" stop-color="#f9bf3b"/><stop offset="1" stop-color="#ac7f18"/></linearGradient><clipPath id="clip-path"><polygon class="cls-1" points="99.82 139.41 158.23 139.41 158.23 69.06 99.82 69.06 99.82 139.41 99.82 139.41"/></clipPath></defs><title>modelos serviços</title><g id="Camada_2" data-name="Camada 2"><rect class="cls-2" x="-21.01" y="97.18" width="300" height="156.62" rx="78.31" ry="78.31" transform="translate(304.48 46.5) rotate(90)"/><rect class="cls-3" x="72.75" y="48.42" width="112.48" height="112.48" rx="56.24" ry="56.24"/><g class="cls-4"><polygon class="cls-5" points="127.94 107.87 147.69 107.87 147.69 110.03 127.94 110.03 127.94 107.87 127.94 107.87"/><polygon class="cls-6" points="127.94 107.87 147.69 107.87 147.69 110.03 127.94 110.03 127.94 107.87 127.94 107.87"/><polygon class="cls-5" points="127.94 111.64 147.69 111.64 147.69 113.8 127.94 113.8 127.94 111.64 127.94 111.64"/><polygon class="cls-6" points="127.94 111.64 147.69 111.64 147.69 113.8 127.94 113.8 127.94 111.64 127.94 111.64"/><polygon class="cls-5" points="127.94 119.46 147.69 119.46 147.69 121.62 127.94 121.62 127.94 119.46 127.94 119.46"/><polygon class="cls-6" points="127.94 119.46 147.69 119.46 147.69 121.62 127.94 121.62 127.94 119.46 127.94 119.46"/><polygon class="cls-5" points="127.94 123.23 147.69 123.23 147.69 125.39 127.94 125.39 127.94 123.23 127.94 123.23"/><polygon class="cls-6" points="127.94 123.23 147.69 123.23 147.69 125.39 127.94 125.39 127.94 123.23 127.94 123.23"/><path class="cls-5" d="M114.69,104.1v4h-4.87v5.39h4.87v6.2h-4.87v5.12h4.87v4.31l9.74-6.73L116,116.5l8.39-5.66-9.74-6.74Zm2.17,15.63,3.78,2.7-3.78,2.42V122.7H112v-.81h4.87v-2.16ZM112,111.38V110.3h4.87v-2.16l3.78,2.7-3.78,2.69v-2.15Z"/><path class="cls-6" d="M114.69,104.1v4h-4.87v5.39h4.87v6.2h-4.87v5.12h4.87v4.31l9.74-6.73L116,116.5l8.39-5.66-9.74-6.74Zm2.17,15.63,3.78,2.7-3.78,2.42V122.7H112v-.81h4.87v-2.16ZM112,111.38V110.3h4.87v-2.16l3.78,2.7-3.78,2.69v-2.15Z"/><polygon class="cls-5" points="132.81 92.78 134.97 92.78 134.97 96.28 132.81 96.28 132.81 92.78 132.81 92.78"/><polygon class="cls-6" points="132.81 92.78 134.97 92.78 134.97 96.28 132.81 96.28 132.81 92.78 132.81 92.78"/><polygon class="cls-5" points="136.87 84.69 139.03 84.69 139.03 96.28 136.87 96.28 136.87 84.69 136.87 84.69"/><polygon class="cls-6" points="136.87 84.69 139.03 84.69 139.03 96.28 136.87 96.28 136.87 84.69 136.87 84.69"/><polygon class="cls-5" points="140.92 79.03 143.09 79.03 143.09 96.28 140.92 96.28 140.92 79.03 140.92 79.03"/><polygon class="cls-6" points="140.92 79.03 143.09 79.03 143.09 96.28 140.92 96.28 140.92 79.03 140.92 79.03"/><polygon class="cls-5" points="144.98 90.08 147.14 90.08 147.14 96.28 144.98 96.28 144.98 90.08 144.98 90.08"/><polygon class="cls-6" points="144.98 90.08 147.14 90.08 147.14 96.28 144.98 96.28 144.98 90.08 144.98 90.08"/><path class="cls-5" d="M118.75,76.61a10.92,10.92,0,1,0,0,21.83,10.92,10.92,0,0,0,0-21.83Zm0,19.67a8.76,8.76,0,0,1-8.93-8.62,8.79,8.79,0,1,1,17.58,0,8.69,8.69,0,0,1-8.65,8.62Z"/><polygon class="cls-5" points="119.29 86.85 119.29 81.46 117.13 81.46 117.13 89.01 124.97 89.01 124.97 86.85 119.29 86.85 119.29 86.85"/><polygon class="cls-6" points="119.29 86.85 119.29 81.46 117.13 81.46 117.13 89.01 124.97 89.01 124.97 86.85 119.29 86.85 119.29 86.85"/><path class="cls-5" d="M157.42,122.7,155,120.81V85.23l2.43-1.88V68.52H100.09V83.35l2.43,1.88v35.58l-2.43,1.89v14.82h57.33V122.7Zm-2.16,12.66h-53V123.77l1.62-1.07.82-.81V84.15l-.82-.8-1.62-1.08V70.68h53V82.27l-1.63,1.08-.81.8v37.74l.81.81,1.63,1.07v11.59Z"/><path class="cls-6" d="M157.42,122.7,155,120.81V85.23l2.43-1.88V68.52H100.09V83.35l2.43,1.88v35.58l-2.43,1.89v14.82h57.33V122.7Zm-2.16,12.66h-53V123.77l1.62-1.07.82-.81V84.15l-.82-.8-1.62-1.08V70.68h53V82.27l-1.63,1.08-.81.8v37.74l.81.81,1.63,1.07v11.59Z"/></g><text class="cls-7" transform="translate(67.82 226.28)">AUTOMAÇÃO<tspan x="-10.3" y="22.21">DE ATIVIDADES</tspan></text></g></svg>