<svg xmlns="http://www.w3.org/2000/svg" xmlns:xlink="http://www.w3.org/1999/xlink" viewBox="0 0 257.99 350.98"><defs><style>.cls-1{fill:none;}.cls-2{fill:url(#Gradiente_sem_nome_5);}.cls-3{fill:url(#Gradiente_sem_nome_11);}.cls-4{clip-path:url(#clip-path);}.cls-5{fill:#293055;}.cls-6{font-size:17.17px;}.cls-6,.cls-7{fill:#fff;font-family:Arial-BoldMT, Arial;font-weight:700;}.cls-7{font-size:17.17px;}</style><linearGradient id="Gradiente_sem_nome_5" x1="128.99" y1="-122.38" x2="128.99" y2="465.41" gradientTransform="translate(-46.5 304.48) rotate(-90)" gradientUnits="userSpaceOnUse"><stop offset="0" stop-color="#1f4788"/><stop offset="1" stop-color="#25244e"/></linearGradient><linearGradient id="Gradiente_sem_nome_11" x1="128.99" y1="89.64" x2="128.99" y2="285.68" gradientUnits="userSpaceOnUse"><stop offset="0" stop-color="#f9bf3b"/><stop offset="1" stop-color="#ac7f18"/></linearGradient><clipPath id="clip-path"><polygon class="cls-1" points="87.67 131.77 173.38 131.77 173.38 69.41 87.67 69.41 87.67 131.77 87.67 131.77"/></clipPath></defs><title>modelos serviços</title><g id="Camada_2" data-name="Camada 2"><rect class="cls-2" x="-21.01" y="97.18" width="300" height="156.62" rx="78.31" ry="78.31" transform="translate(304.48 46.5) rotate(90)"/><rect class="cls-3" x="72.75" y="48.42" width="112.48" height="112.48" rx="56.24" ry="56.24"/><g class="cls-4"><path class="cls-5" d="M160.06,68.68h-.49l-31.71,8.7H94.21a2.09,2.09,0,0,0-1.94,1.94v7.73l-3.39,1A2,2,0,0,0,87.43,90v.49l4.84,17.4v12.09a2.08,2.08,0,0,0,1.94,1.93h1.94l1.93,7.25a2.39,2.39,0,0,0,1.94,1.45h.48l31.47-8.7h33.9a2.08,2.08,0,0,0,1.93-1.93v-8l3.39-.73a2.38,2.38,0,0,0,1.45-1.93v-.48L167.8,91.4V79.32a2.08,2.08,0,0,0-1.93-1.94h-1.94L162,70.13a1.84,1.84,0,0,0-1.93-1.45ZM158.6,73l1.21,4.35H142.63ZM96.15,81.25h67.78V118H96.15ZM130,83.19A16.44,16.44,0,1,0,146.5,99.62,16.62,16.62,0,0,0,130,83.19Zm0,3.86a12.57,12.57,0,1,1-12.59,12.57A12.49,12.49,0,0,1,130,87.05ZM130,89a2.08,2.08,0,0,0-1.94,1.93v.24a5.45,5.45,0,0,0-3.87,5.08,5.29,5.29,0,0,0,1.45,3.62,5.5,5.5,0,0,0,4.36,1.7,2.31,2.31,0,0,1,1.69.48c0,.24.24.48.24,1a1.9,1.9,0,0,1-1.93,1.45,2.34,2.34,0,0,1-2.18-1,2,2,0,1,0-3.39,1.93,5.81,5.81,0,0,0,3.63,2.66v.24a1.94,1.94,0,1,0,3.87,0v-.24a5.44,5.44,0,0,0,3.88-5.07,6.43,6.43,0,0,0-1.46-3.87A6.28,6.28,0,0,0,130,97.69a2.28,2.28,0,0,1-1.7-.49c0-.24-.24-.48-.24-1A1.9,1.9,0,0,1,130,94.79a2.35,2.35,0,0,1,2.18,1,2,2,0,1,0,3.39-1.93A5.84,5.84,0,0,0,132,91.16v-.24A1.9,1.9,0,0,0,130,89ZM92.27,91.16V93.1l-.48-1.94Zm12.59,1.69a5.81,5.81,0,1,0,5.81,5.8,5.88,5.88,0,0,0-5.81-5.8Zm50.35,0a5.81,5.81,0,1,0,5.81,5.8,5.89,5.89,0,0,0-5.81-5.8Zm-50.35,3.87a1.94,1.94,0,1,1-1.94,1.93,1.78,1.78,0,0,1,1.94-1.93Zm50.35,0a1.94,1.94,0,1,1-1.93,1.93,1.78,1.78,0,0,1,1.93-1.93Zm12.59,9.43.49,1.69-.49.24Zm-67.54,15.71h17.19l-16,4.35Z"/></g><text class="cls-6" transform="translate(58.97 216.36)">LEVANTAMENTO<tspan x="12.87" y="20.61">DE CRÉDITOS</tspan></text><text class="cls-7"><tspan x="72.75" y="258.69">TRIBUTÁRIOS</tspan></text></g></svg>