<svg xmlns="http://www.w3.org/2000/svg" xmlns:xlink="http://www.w3.org/1999/xlink" viewBox="0 0 257.99 350.98"><defs><style>.cls-1{fill:none;}.cls-2{fill:url(#Gradiente_sem_nome_5);}.cls-3{fill:url(#Gradiente_sem_nome_11);}.cls-4{clip-path:url(#clip-path);}.cls-5{fill:#233656;}.cls-6{font-size:22.3px;fill:#fff;font-family:Arial-BoldMT, Arial;font-weight:700;}</style><linearGradient id="Gradiente_sem_nome_5" x1="128.99" y1="-122.38" x2="128.99" y2="465.41" gradientTransform="translate(-46.5 304.48) rotate(-90)" gradientUnits="userSpaceOnUse"><stop offset="0" stop-color="#1f4788"/><stop offset="1" stop-color="#25244e"/></linearGradient><linearGradient id="Gradiente_sem_nome_11" x1="128.99" y1="89.64" x2="128.99" y2="285.68" gradientUnits="userSpaceOnUse"><stop offset="0" stop-color="#f9bf3b"/><stop offset="1" stop-color="#ac7f18"/></linearGradient><clipPath id="clip-path"><polygon class="cls-1" points="99.12 134.27 161.99 134.27 161.99 63.95 99.12 63.95 99.12 134.27 99.12 134.27"/></clipPath></defs><title>modelos serviços</title><g id="Camada_2" data-name="Camada 2"><rect class="cls-2" x="-21.01" y="97.18" width="300" height="156.62" rx="78.31" ry="78.31" transform="translate(304.48 46.5) rotate(90)"/><rect class="cls-3" x="72.75" y="48.42" width="112.48" height="112.48" rx="56.24" ry="56.24"/><g class="cls-4"><path class="cls-5" d="M137.69,69.77l-.36,1.06-.53,1a1.27,1.27,0,0,0,.36,1.06l2.11,1.23a7.48,7.48,0,0,0,0,2.83l-1.94,1.23a.85.85,0,0,0-.35,1.06l.53,1L138,81.4a.73.73,0,0,0,1.05.53l2.29-.53a10.18,10.18,0,0,0,1.94,1.94l-.53,2.29a1.11,1.11,0,0,0,.71,1.06l1.05.35,1.06.53c.35.18.71,0,1.06-.35l1.23-2.12a6.52,6.52,0,0,0,2.64,0L152,87.22a.85.85,0,0,0,1.06.35l1.06-.53,1.05-.53a.84.84,0,0,0,.53-1.05l-.53-2.3a6.09,6.09,0,0,0,1.77-1.93l2.46.52a1.27,1.27,0,0,0,1.06-.7l.35-1.06.35-1.06c.18-.35,0-.7-.35-1.05l-1.94-1.24a7.43,7.43,0,0,0,0-2.82l1.94-1.23a.85.85,0,0,0,.35-1.06l-.35-1.06-.53-1c-.17-.36-.7-.71-1.06-.53l-2.28.53a6.8,6.8,0,0,0-2.12-1.77l.71-2.46a1.09,1.09,0,0,0-.71-1.06l-1.06-.35-1.05-.53a.85.85,0,0,0-1.06.35l-1.41,2.11a7.84,7.84,0,0,0-2.82,0l-1.05-1.93a1.1,1.1,0,0,0-1.24-.36L144,64l-1.06.53c-.35,0-.53.53-.53,1.06l.71,2.29a6.76,6.76,0,0,0-1.94,1.94l-2.29-.53c-.71-.18-1.06,0-1.23.53Zm9.51,1.41a4.58,4.58,0,0,1,6.16,2.47,4.4,4.4,0,0,1-2.46,6,4.59,4.59,0,0,1-6.17-2.47,4.75,4.75,0,0,1,2.47-6ZM125.36,101a1.35,1.35,0,0,1-1.77,1,1.46,1.46,0,0,1-1-1.76,1.57,1.57,0,0,1,1.76-1.06,1.43,1.43,0,0,1,1.06,1.77ZM114.43,133.4l23.78-8.11a2.12,2.12,0,0,0,1.41-1.94v-9.16a21.2,21.2,0,0,0,4.93-14.1,20.73,20.73,0,0,0-19-19.92,20.47,20.47,0,0,0-22,19v.53a17,17,0,0,1-1.58,6.53,35.77,35.77,0,0,1-2.64,4.58,1.88,1.88,0,0,0,1.58,2.82h2.64v9.87a3.53,3.53,0,0,0,3.53,3.52h5.63V132a1.49,1.49,0,0,0,1.76,1.41Zm.89-26.09a1.26,1.26,0,0,1-1.77-.53h0a1.3,1.3,0,1,1,2.29-1.23,1.25,1.25,0,0,1-.52,1.76Zm4.57,3.53a1.43,1.43,0,0,1-1.76.53c-.35-.18-.35-.36-.53-.53-.17-.53-.35-.88,0-1.41a1.44,1.44,0,0,1,1.77-.53,1.41,1.41,0,0,1,.52,1.94Zm4.23,1.94a1.25,1.25,0,0,1-1.05-.53,1.34,1.34,0,0,1-.36-.71,1.37,1.37,0,0,1,1.41-1.23h0a1.25,1.25,0,1,1,0,2.47Zm6.17-1.59a1.42,1.42,0,0,1-1.94-.53h0a1.37,1.37,0,0,1,.53-1.76,1.57,1.57,0,0,1,1.94.35,1.6,1.6,0,0,1-.53,1.94Zm4.4-4.58a1.42,1.42,0,0,1-1.94.53l-.53-.53a1.57,1.57,0,0,1,0-1.24,1.38,1.38,0,0,1,2.47,1.24Zm1.59-6a1.26,1.26,0,0,1-1.41,1.24,1.63,1.63,0,0,1-1.24-.53c0-.18-.17-.53-.17-.71a1.3,1.3,0,0,1,1.41-1.41,1.39,1.39,0,0,1,1.41,1.41Zm-1.77-6.16a1.31,1.31,0,0,1-.35,1.76l-6.87,4.93a4.24,4.24,0,0,1-1.58,2.47,3.41,3.41,0,0,1-4.58-1.23A3.21,3.21,0,0,1,122.36,98a2.78,2.78,0,0,1,2.82-.35l7.4-3.53a1.55,1.55,0,0,1,1.93.36Zm-22.89,6.16a12.4,12.4,0,0,1,12.5-12.33,13.07,13.07,0,0,1,8.28,3.17c-.35.18-.53.18-.7.35L129.23,93a8.76,8.76,0,0,0-5.11-1.59,9.17,9.17,0,0,0-9.33,9.34,1.55,1.55,0,0,1-1.59,1.41,1.57,1.57,0,0,1-1.58-1.59Z"/></g><text class="cls-6" transform="translate(81.4 241.46)">UPWORK</text></g></svg>