<svg xmlns="http://www.w3.org/2000/svg" xmlns:xlink="http://www.w3.org/1999/xlink" viewBox="0 0 156.62 300"><defs><style>.cls-1{fill:none;}.cls-2{fill:url(#linear-gradient);}.cls-3{fill:url(#linear-gradient-2);}.cls-4{clip-path:url(#clip-path);}.cls-5{fill:#293055;}.cls-6,.cls-7{isolation:isolate;}.cls-7{font-size:17.17px;fill:#fff;font-family:Arial-BoldMT, Arial;font-weight:700;}.cls-8{letter-spacing:-0.07em;}.cls-9{letter-spacing:0em;}.cls-10{letter-spacing:-0.02em;}.cls-11{letter-spacing:-0.02em;}</style><linearGradient id="linear-gradient" x1="78.31" y1="448.17" x2="78.31" y2="-139.62" gradientTransform="matrix(1, 0, 0, -1, 0, 300.3)" gradientUnits="userSpaceOnUse"><stop offset="0" stop-color="#1f4788"/><stop offset="1" stop-color="#25244e"/></linearGradient><linearGradient id="linear-gradient-2" x1="78.31" y1="236.15" x2="78.31" y2="40.11" gradientTransform="matrix(1, 0, 0, -1, 0, 300.3)" gradientUnits="userSpaceOnUse"><stop offset="0" stop-color="#f9bf3b"/><stop offset="1" stop-color="#ac7f18"/></linearGradient><clipPath id="clip-path"><polygon class="cls-1" points="36.99 106.28 122.7 106.28 122.7 43.92 36.99 43.92 36.99 106.28 36.99 106.28"/></clipPath></defs><title>Asset 6</title><g id="Layer_2" data-name="Layer 2"><g id="Layer_1-2" data-name="Layer 1"><g id="Camada_2" data-name="Camada 2"><path class="cls-2" d="M156.62,78.31V221.69A78.31,78.31,0,0,1,78.31,300h0A78.31,78.31,0,0,1,0,221.69V78.31A78.31,78.31,0,0,1,78.31,0h0A78.31,78.31,0,0,1,156.62,78.31Z"/><path class="cls-3" d="M78.31,22.93h0a56.24,56.24,0,0,1,56.24,56.24h0a56.24,56.24,0,0,1-56.24,56.24h0A56.24,56.24,0,0,1,22.07,79.17h0A56.24,56.24,0,0,1,78.31,22.93Z"/><g class="cls-4"><path class="cls-5" d="M109.38,43.19h-.49l-31.71,8.7H43.53a2.09,2.09,0,0,0-1.94,1.94v7.73l-3.39,1a2,2,0,0,0-1.45,2V65l4.84,17.4V94.49a2.08,2.08,0,0,0,1.94,1.93h1.94l1.93,7.25a2.41,2.41,0,0,0,1.94,1.45h.48l31.47-8.7h33.9a2.08,2.08,0,0,0,1.93-1.93v-8l3.39-.73A2.38,2.38,0,0,0,122,83.83v-.48l-4.84-17.44V53.83a2.08,2.08,0,0,0-1.93-1.94h-1.94l-1.93-7.25a1.83,1.83,0,0,0-1.93-1.45Zm-1.46,4.32,1.21,4.35H92ZM45.47,55.76h67.78V92.51H45.47ZM79.32,57.7a16.44,16.44,0,1,0,16.5,16.43A16.61,16.61,0,0,0,79.32,57.7Zm0,3.86a12.5,12.5,0,1,1-.18,0Zm0,1.95a2.08,2.08,0,0,0-1.94,1.93v.24a5.45,5.45,0,0,0-3.87,5.08A5.25,5.25,0,0,0,75,74.38a5.5,5.5,0,0,0,4.36,1.7,2.3,2.3,0,0,1,1.69.48c0,.24.24.48.24,1A1.9,1.9,0,0,1,79.32,79a2.34,2.34,0,0,1-2.18-1,2,2,0,0,0-3.83,1.16,2,2,0,0,0,.44.77,5.78,5.78,0,0,0,3.63,2.66v.24a1.94,1.94,0,0,0,3.87.28,1.31,1.31,0,0,0,0-.28V82.6a5.44,5.44,0,0,0,3.88-5.07,6.43,6.43,0,0,0-1.46-3.87,6.26,6.26,0,0,0-4.35-1.46,2.27,2.27,0,0,1-1.7-.49c0-.24-.24-.48-.24-1a1.9,1.9,0,0,1,1.94-1.41,2.35,2.35,0,0,1,2.18,1,2,2,0,0,0,3.83-1.16,2,2,0,0,0-.44-.77,5.83,5.83,0,0,0-3.57-2.7v-.24a1.9,1.9,0,0,0-1.88-1.92ZM41.59,65.67v1.94l-.48-1.94Zm12.59,1.69A5.81,5.81,0,1,0,60,73.17h0A5.88,5.88,0,0,0,54.18,67.36Zm50.35,0a5.81,5.81,0,1,0,5.81,5.81h0A5.88,5.88,0,0,0,104.53,67.36ZM54.18,71.23a1.94,1.94,0,1,1-1.94,1.94h0a1.78,1.78,0,0,1,1.62-1.93A1.71,1.71,0,0,1,54.18,71.23Zm50.35,0a1.94,1.94,0,1,1-1.93,2v0a1.78,1.78,0,0,1,1.62-1.93A1.61,1.61,0,0,1,104.53,71.23Zm12.59,9.43.49,1.69-.49.24ZM49.58,96.37H66.77l-16,4.35Z"/></g><g class="cls-6"><text class="cls-7" transform="translate(8.29 190.87)">LE<tspan class="cls-8" x="21.94" y="0">V</tspan><tspan class="cls-9" x="32.12" y="0">AN</tspan><tspan class="cls-8" x="56.92" y="0">T</tspan><tspan x="66.13" y="0">AMEN</tspan><tspan class="cls-10" x="116.69" y="0">T</tspan><tspan x="126.86" y="0">O</tspan></text><text class="cls-7" transform="translate(21.16 211.48)">DE CRÉDI<tspan class="cls-11" x="82.04" y="0">T</tspan><tspan x="92.22" y="0">OS</tspan></text></g><g class="cls-6"><text class="cls-7" transform="translate(22.07 233.2)">TRIBUTÁRIOS</text></g></g></g></g></svg>