<svg xmlns="http://www.w3.org/2000/svg" xmlns:xlink="http://www.w3.org/1999/xlink" viewBox="0 0 156.62 300"><defs><style>.cls-1{fill:none;}.cls-2{fill:url(#linear-gradient);}.cls-3{fill:url(#linear-gradient-2);}.cls-4{clip-path:url(#clip-path);}.cls-5{fill:#233656;}.cls-10,.cls-6,.cls-7,.cls-8,.cls-9{isolation:isolate;}.cls-10,.cls-7,.cls-8,.cls-9{font-size:18.51px;fill:#fff;font-family:Arial-BoldMT, Arial;font-weight:700;}.cls-8{letter-spacing:-0.09em;}.cls-9{letter-spacing:-0.02em;}.cls-10{letter-spacing:-0.11em;}.cls-11{letter-spacing:-0.02em;}</style><linearGradient id="linear-gradient" x1="78.31" y1="448.17" x2="78.31" y2="-139.62" gradientTransform="matrix(1, 0, 0, -1, 0, 300.3)" gradientUnits="userSpaceOnUse"><stop offset="0" stop-color="#1f4788"/><stop offset="1" stop-color="#25244e"/></linearGradient><linearGradient id="linear-gradient-2" x1="78.31" y1="236.15" x2="78.31" y2="40.11" gradientTransform="matrix(1, 0, 0, -1, 0, 300.3)" gradientUnits="userSpaceOnUse"><stop offset="0" stop-color="#f9bf3b"/><stop offset="1" stop-color="#ac7f18"/></linearGradient><clipPath id="clip-path"><polygon class="cls-1" points="42.51 112.75 114.11 112.75 114.11 45.59 42.51 45.59 42.51 112.75 42.51 112.75"/></clipPath></defs><title>Asset 3</title><g id="Layer_2" data-name="Layer 2"><g id="Layer_1-2" data-name="Layer 1"><g id="Camada_2" data-name="Camada 2"><path class="cls-2" d="M156.62,78.31V221.69A78.31,78.31,0,0,1,78.31,300h0A78.31,78.31,0,0,1,0,221.69V78.31A78.31,78.31,0,0,1,78.31,0h0A78.31,78.31,0,0,1,156.62,78.31Z"/><path class="cls-3" d="M78.31,22.93h0a56.24,56.24,0,0,1,56.24,56.24h0a56.24,56.24,0,0,1-56.24,56.24h0A56.24,56.24,0,0,1,22.07,79.17h0A56.24,56.24,0,0,1,78.31,22.93Z"/><g class="cls-4"><path class="cls-5" d="M63.61,58.07a2.61,2.61,0,0,1-2.56,2.57,2.65,2.65,0,0,1-2.73-2.57h0a2.69,2.69,0,0,1,2.61-2.77h.15a2.66,2.66,0,0,1,2.56,2.76h0Z"/><path class="cls-5" d="M63.61,68a2.62,2.62,0,0,1-2.56,2.54A2.66,2.66,0,0,1,58.32,68,2.7,2.7,0,0,1,61,65.2h.13A2.66,2.66,0,0,1,63.64,68h0Z"/><path class="cls-5" d="M61.05,75.11a2.66,2.66,0,0,1,2.56,2.76h0a2.61,2.61,0,0,1-2.56,2.57,2.65,2.65,0,0,1-2.76-2.54v0a2.69,2.69,0,0,1,2.61-2.77Z"/><path class="cls-5" d="M87.87,60.45H69.93a2.38,2.38,0,0,1,0-4.76H87.87a2.39,2.39,0,1,1,.44,4.76Z"/><path class="cls-5" d="M87.87,70.35H69.93a2.28,2.28,0,0,1-2.37-2.21V68a2.45,2.45,0,0,1,2.33-2.57h18A2.62,2.62,0,0,1,90.44,68a2.45,2.45,0,0,1-2.52,2.38Z"/><path class="cls-5" d="M87.87,80.26H69.93a2.42,2.42,0,0,1-2.37-2.38A2.46,2.46,0,0,1,69.9,75.3h18a2.62,2.62,0,0,1,2.57,2.58A2.6,2.6,0,0,1,87.87,80.26Z"/><path class="cls-5" d="M61.05,84.42A2.61,2.61,0,0,1,63.61,87a2.66,2.66,0,0,1-2.55,2.77h0a2.69,2.69,0,0,1-2.76-2.62V87A2.65,2.65,0,0,1,61,84.42Z"/><path class="cls-5" d="M87.87,89.57H69.93A2.46,2.46,0,0,1,67.56,87v0a2.42,2.42,0,0,1,2.37-2.38H87.87A2.6,2.6,0,0,1,90.44,87,2.62,2.62,0,0,1,87.87,89.57Z"/><path class="cls-5" d="M113.32,56.68c0-8.71-3.16-11.88-7.3-11.88H56.91a7.41,7.41,0,0,0-7.3,7.33V99.27H42.32c0,10.9,4,12.48,9.08,12.48h43a7.47,7.47,0,0,0,7.5-7.33V56.68Zm-14.4,47.74a4.43,4.43,0,0,1-4.5,4.36h0c-3.94,0-5.91-.79-5.91-9.51H52.57V52.13a4.4,4.4,0,0,1,4.34-4.36h44c-1.18,1.78-2,4.75-2,8.71v47.94Z"/></g><g class="cls-6"><text class="cls-7" transform="translate(13.67 190.39)">C</text><text class="cls-7" transform="translate(27 190.39)">O</text><text class="cls-7" transform="translate(41.43 190.39)">N</text><text class="cls-7" transform="translate(54.76 190.39)">S</text><text class="cls-7" transform="translate(67.1 190.39)">U</text><text class="cls-8" transform="translate(80.43 190.39)">L</text><text class="cls-9" transform="translate(90.44 190.39)">T</text><text class="cls-7" transform="translate(101.43 190.39)">O</text><text class="cls-7" transform="translate(115.86 190.39)">R</text><text class="cls-7" transform="translate(129.19 190.39)">I</text><text class="cls-10" transform="translate(134.37 190.39)">A</text><text class="cls-7" transform="translate(13.67 212.6)">EMPRESARIA<tspan class="cls-11" x="123.42" y="0">L</tspan></text></g><g class="cls-6"><text class="cls-7" transform="translate(13.67 234.81)">E GESTÃO DE</text><text class="cls-7" transform="translate(13.67 257.02)"><tspan xml:space="preserve">      RISCOS</tspan></text></g></g></g></g></svg>