<svg xmlns="http://www.w3.org/2000/svg" xmlns:xlink="http://www.w3.org/1999/xlink" viewBox="0 0 1000 1000"><defs><style>.cls-1{font-size:51.7px;font-family:Lato-Light, Lato;}.cls-2{letter-spacing:-0.01em;}.cls-3{letter-spacing:-0.1em;}.cls-4{letter-spacing:-0.04em;}.cls-5{fill:url(#Gradiente_sem_nome_4);}.cls-6{fill:url(#Gradiente_sem_nome_103);}.cls-7{fill:#3e3d62;}.cls-8{fill:#4851e2;}</style><linearGradient id="Gradiente_sem_nome_4" x1="212.77" y1="-71.37" x2="247.69" y2="421.37" gradientUnits="userSpaceOnUse"><stop offset="0" stop-color="#313bde"/><stop offset="1" stop-color="#25244e"/></linearGradient><linearGradient id="Gradiente_sem_nome_103" x1="507.72" y1="-92.27" x2="542.63" y2="400.47" xlink:href="#Gradiente_sem_nome_4"/></defs><title>Logo UP</title><g id="Camada_6" data-name="Camada 6"><text class="cls-1" transform="translate(147.79 529.72)"><tspan class="cls-2">C</tspan><tspan x="34.33" y="0">ONSU</tspan><tspan class="cls-3" x="179.52" y="0">L</tspan><tspan class="cls-4" x="200.54" y="0">T</tspan><tspan x="228.33" y="0">ORES</tspan></text><path class="cls-5" d="M231.16,440.35c-76.19,0-137.68-61.5-137.68-139.51V96.15H166V300.84c0,36.25,28.91,67,65.17,67,35.79,0,67-30.75,67-67V96.15h72.51V300.84C370.67,378.85,306.88,440.35,231.16,440.35Z"/><path class="cls-6" d="M676.9,223.73c0,65.63-50.94,122.08-116.57,129.42h-89v87.2h-73V96.15h162C626,101.66,676.9,156.27,676.9,223.73Zm-73,0c0-27.53-17.9-49.1-43.6-56.44h-89V280.18h89C586,272.84,603.93,250.81,603.93,223.73Z"/><path class="cls-7" d="M849.22,245.76a14.4,14.4,0,0,0-2.1-.93A8.21,8.21,0,0,0,849.22,245.76Z"/><path class="cls-7" d="M800.68,338.63l-.59-1.51A1.32,1.32,0,0,0,800.68,338.63Z"/><path class="cls-7" d="M873.32,187.58a4.36,4.36,0,0,0,.48.29c.36-.91.85-2.13,1.6-4.14Z"/><path class="cls-7" d="M691.26,526.53l.63-1.19C691.55,525.84,691.15,526.06,691.26,526.53Z"/><path class="cls-7" d="M760.81,418.63a3,3,0,0,1,.74,2.26C762,420.2,762.13,419.5,760.81,418.63Z"/><path class="cls-7" d="M929.87,168.49l-3.69.89C927.57,169.72,929.19,169.49,929.87,168.49Z"/><path class="cls-7" d="M932.86,102.22a4.8,4.8,0,0,0-.77,0A.78.78,0,0,0,932.86,102.22Z"/><path class="cls-7" d="M913.93,123.54a11.39,11.39,0,0,0,1,2.11C915,124.88,915.23,123.93,913.93,123.54Z"/><path class="cls-7" d="M915.52,126.69c-.19-.34-.4-.69-.6-1C914.91,126.15,915,126.56,915.52,126.69Z"/><path class="cls-7" d="M66.68,843.25a2.93,2.93,0,0,0-2.56.7c-.91.62-1.91,1.52-2.89,2.3Z"/><path class="cls-7" d="M574.26,676.62l-.71-1.22A1.84,1.84,0,0,0,574.26,676.62Z"/><path class="cls-7" d="M56.3,870.34l-1-1C55.59,870,55.92,870.25,56.3,870.34Z"/><path class="cls-7" d="M929.1,204.19c2.6,2.72-2.21,5.37.84,6.22C930,208.34,933.14,206.29,929.1,204.19Z"/><path class="cls-7" d="M628.2,795.32l-.88,1A2.86,2.86,0,0,0,628.2,795.32Z"/><path class="cls-7" d="M56.3,870.34l1.17,1.16c.06-.62,0-1.13.05-1.68A1.78,1.78,0,0,1,56.3,870.34Z"/><path class="cls-7" d="M419.34,789.43l.06,0c0-.25.06-.41.08-.69Z"/><path class="cls-7" d="M408,789l1.46-1.87C408.3,787.28,408,788,408,789Z"/><path class="cls-7" d="M61.23,846.25c-1.06.56-2,1.13-3,1.7A6.82,6.82,0,0,0,61.23,846.25Z"/><path class="cls-7" d="M308.05,828.51a3.42,3.42,0,0,0,.87-.61A1,1,0,0,0,308.05,828.51Z"/><path class="cls-7" d="M766,411.87a5.88,5.88,0,0,0,1-.58C766.37,410.89,765.85,410.72,766,411.87Z"/><path class="cls-7" d="M806.56,525.69l0,0,.06,0S806.58,525.7,806.56,525.69Z"/><path class="cls-7" d="M805.13,519.67c-1.32.94-.2,3.88,1.43,6C807.23,524.39,807.26,522.84,805.13,519.67Z"/><path class="cls-7" d="M800.28,533.63c.21-.09.38-.16.62-.28A1.06,1.06,0,0,0,800.28,533.63Z"/><path class="cls-7" d="M847.86,453l-.32-.15a1.51,1.51,0,0,0,.26.18Z"/><path class="cls-7" d="M840.56,470a3.9,3.9,0,0,0-1.87.52A3.24,3.24,0,0,0,840.56,470Z"/><path class="cls-7" d="M785.22,578.38s-.08-.07-.11-.09,0,.07,0,.1Z"/><path class="cls-7" d="M699.17,738c1.36-1.89,2.73-3.88,4.1-6s2.62-4.3,3.94-6.53c2.63-4.46,5.28-9.11,8-13.66,1.36-2.28,2.76-4.52,4.15-6.74s2.71-4.43,4.12-6.53a81.14,81.14,0,0,1,8.92-11.34,13.77,13.77,0,0,1-.6-9.27,76.22,76.22,0,0,1,3.14-8l7.51,4.84.53-5.56c3.32,0-.84,4,3.92,3.18l-3.4-4.74c2.79,1.6,9-8.69,9.4,1.58l5.53-7.54c.91-1.26,1.86-2.51,2.75-3.78l2.64-3.84c2.55-3.25-4.75-6.23-.38-8.72,2.67.72.55,2.36,3.39,3.88,6.59-3.77,5.27-9.49,3.56-15.22-.85-2.87-1.8-5.75-1.88-8.41a8.39,8.39,0,0,1,3.15-7.26l.43,1.55c-.84-3.1,1.61-6.35.56-7.08-8.42-3.54,2.88,4.54-3.63,4.87-6.16-4.42-.87-6.23-5.83-9.15,3.87-1,1.17-4.73,2.15-7.09,6.33-1.09,6.8-8.11,13.6-7.73-.85-3-6-9-4-13,6.73.3,4.44,3.6,8.61,1l-3.4-2.88c2.43-2.76,3.2-1.64,4.91-.46,2.16-3.25-3.53-5.86,1.39-8.59l2.28,4.5c.41-4,1.81-4.82,4.71-8.94,2.12,1.36.94,3-.45,3.91,7,.94,0-5.43,1.33-6.34-1.87-.59-4.4,1.95-7.27-1.68,1-.87.37-2.74.18-4.27s0-2.72,2.67-2.2l2.35,4.46c-.44-6.21-3.42-5.13,1-9.45.13.45,1.15.85,1.89,1.42-3.07-6,3.75-7.79,6.82-12.44l.52,1.49c-.22-2.67-3.06-5.63-2.2-6.53-3.75,1.53-4.46.16-8.31-1.63,4.19-.06,3.13-2.45,1.88-5.29s-2.61-6.11.81-8.08c2.14,1.27,4.12,4.18.86,4.53,5.42,5.55,10.83,8.81,11.86,14.12-.25-3.09.32-6.24,2.76-4.19l-5.69-4a38.24,38.24,0,0,1,2.09-3.38c-3.54-2.65-7.76-.61-8.62-5.15-.12-4.63,7.25,1.44,4.79-.58.15-6.24-5.5-5.53-1-9.2.27.74.84,2.22,0,2.32C806,511,805,504.18,812.93,507c1.39,1.36,3.56,2.61,2.25,3.58l-1.1-.64c3.4,6.56.19-3.9,6.24.73-4.12-1.8-.69-6.15,1.17-7.95l-4.91-1.63c-9.84-14.12,8.8,5,10.78-3.1-.83-6.15-2.12,1.1-3.94-3.32,2.3-2.71,6.93-1.85,7.17-7.39,2.43-.37,6.14-1.76,11.38.52-.72-3.79,6.43-7.36,2.18-11.35-6.63,2.67,3.08,7.35-6.31,9.66l-4.24-4c2.13-3.7,2-9.81,5.09-11.58a5,5,0,0,1-3.57-1.16c.75-6.35-3.51-10.25.42-14.87,5,1.45,2.73,4.2,2.1,6.67,5.27-1.72,1.92-3.47,5.85-8.12,4.19,1.58-1.88,3.49,1.8,5.95l1.42-6.53c.23.13.52.23.83.37-6.4-4,2.64-4.25,2.27-8.81,4-8.58-4.62-14-8-21.06,2.43-.46,4.33-.08,5.81,1.21-4,.77-1.43,1.44,0,2.95.64-3.17,9.46-3.44,11.55-.6,0-5.52-4.31.11-5.24-3.66l3.14-6.16c-3.84-.75-5.54,1.14-6.84-3.28.21-3.17,1.46-4.21,3.23-7.72,1.5,1.26,5.82,1.11,4.46,3.74,2.06-1.19,3.39-3.86.41-6.34-4.87,2.6-.28-7.75-7-7.08l4.87-2.6c-.44.87,1.86,1.93.6,3,5.83,1.09-.15-3.86-.08-5.44,1.62-1,3.63-4.38,5.81-3.84-1-1.86,1.4-4.46,4.37-3.94-.32-2.3-3.45-1.56-5-2.8l3-6.18c3.12.84,11.61,3.58,12.34,5-1.8-3.52-8.45-4.35-6.73-7.88,4.93,4.36,6.36-3.09,12,2.65,5.08-.44,7.28-6.54,7-10.43-3.79-3.81-4,2.58-8.65.54,1.94-9.93-10.78-15.38-6.05-21.32L873,344c-1.12-5.23-.71-4.54-3.81-8.49,5.42,3.36,17.55,1,18.86-6.45-2.75-1.66-7.07,1.86-11.33-1l.81-4.94c.59-.16,1.39.7,1.93,1.57-.58-4.89,10.49-5,4-8.64L893.62,315l-4.31.37c-2.71-1.61-1.86-6.57-2.69-7.94-1.63-5.91,1.49-6.75,6.15-8.08-2.73,0-9,.14-8.63-3.92,9.6,3.34,6.24-6.66,11.18-4.86.39-1.56,4.31-3.25.38-4.77l5.9,2.27c-8.24-3.17-6-8.57-6-13.3,11,4.7.69-4.94,11.7-3.44-7.42-3.31-.65-8.59-7-11.45.66-3.4,7.77-.77,10.5-.83l-2.4-2.45c4.15-.51,6.64-6.53,10.3-9.44l-5.78-5.55,3.52-.31c-1.58-1.08-1.71-4.24-4.81-3.26l1-1.72c-7.46-2.45-1.25-3.22-3.29-7.89a3.68,3.68,0,0,1,4,1.38c.64-1.82,4.25.14,7.08-.12-2.32.72-11.41-10.68-16.34-6.73a4.32,4.32,0,0,1-3.2-2.46,2.45,2.45,0,0,1,.54-3.08l7.07.9L901.91,214c-.18-3.12,4.5-3.06,5.94-5.13-.26,2.46,11.49,9.08,13.09,2.91-.06,3.47,3.25,6.16,4.18,8.24.63-1.19,1.47-1.63,3.77,1.2-.71-5.42-3.69-2.83-3.17-7.82,6,2,8.29,1.27,11.58-2.28L932,212.92a4.94,4.94,0,0,1-1.46-1.07c-1,1-2,1-4.43.61.32-.93-5.92-7.67-2-7.39-10.81,2-4.91-10.38-11.49-9-1.61-1-1-4.43,2.12-3.9,3.45,5.24,7.77-1,11.83.83-1.33-2-5.4,1.83-7.13-.81.27-2.46,4.52-3.13,6.81-3.91l.86,1.31,3.78-2.88c-2.86-1.44-6.17,2.08-6.78-1.71,1.53-.52.92-4.31,3.32-3.54,3.71,2.76,9.6,3.13,9.8,6.29a19.26,19.26,0,0,0,.13-5.89c-.46-2.08-1.76-3.64-5-2.89l1-2.79c-3,1.09-9,4.79-8.32-1.13l1.21.39-3.56-5.21,3.61-.87c-1.56-.37-2.81-1.38-2.32-2.81,1.94.11,3-1.07,5.44-.3.83-4.34-2.36-4.82-4-5.85.19-2.49,1.71-3,5-1,1.68-3,2.4-8.94,6.22-10.32-1.58-5.08-1.52.56-5-3.07,11.68-1,8-13.35,8.34-20.84-9.81-.39-.58-2.22-8.77-5.64,2.56,2.27,8.89-5,10,1.93l0-4.06c5.78-1.35,2.31,7.27,10.32,5.06.75-4.38-8.81-9.69-4.13-13.9,6.21,3.3-1.24-4.42,5.74-1.4,2.14,1.63,1.06,2.86,1.24,4.42l1.51-.57c4.22-9-7.16-4.62-10.51-10.63.55-5.91,6.34-3.26,9.54-2.86,1.51-.58,1.18-3.72-.18-5.63,3.2,4.45-5.74,5.48-9.54,2.88,8.18-.73,2.68-8.35.08-10.59-10,6.27-1.77,5.57-12.23,11.17,2.14,1.62,9,3.06,5.05,7-2.65-3.68-3.82-.71-5.12-.16,4.12.06.85,3.57,2.13,5.36-3.48.5-8.34-4.93-11-.69l9,3.12c-1.83,1.48-6.53-2.41-5.29,2-4.27-3.25-7.58-1.2-7.77-6.77-9.35,4.29,1.9,10.56,4,16.25-.45-.64-1.66-1-2.15-1.64,2.15,1.64,1.55,3.48,1.74,5-2.87,2.67-3.52-3.56-6.24-3.36l-1,5.22a1.79,1.79,0,0,1-.69,0c.93,1.68,1.39,3.17-1,3.06-2.54-2.27-5.42-3.64-7.56-5.28l4.95,7c-2.86-1.36-6.39,3.1-7.57-1.29l-.84,8.28-6.35-.94c.58,2.18,1.79,2.55,3.14.48-2.13,2.33,7.57,14.88-4.18,10.24,3.39,7.57.78,9.28,1.87,17.68-4.11-7.34-9,4.68-9.93-2.18-3.66,2.85,2.84,5.44,3,8.53-3.38,1.92-9.06-.94-10.49-4.4l1.83,4.12-1.19-.4,2.61,3.87c-4.17,2.16-6.33-1.07-8.09,1.86l5.22,2.22-3.8,1.26c2.72-.11,3.27,2.08,3,4.52l-1.2-.4.22,3.1c-2.49-3.71-1.91,2.23-5.42-.16-1,2.32-.91,2.39-1.18,7l3.92.31c1.58,6.59-5.56-1.36-7.2,3.11l4.33,1c-4.53,2.24-4.32,5.32-3.74,8.3a18.53,18.53,0,0,1,.61,4.24,3.85,3.85,0,0,1-2.15,3.3c-.12-3.07-5.27-3.85-4.07-3.43.24,4.62-3,11,.75,16.93-6.64-.34-8.59-.54-12.73,3-.63,3.31-.19,4,3,6.14-3.35,2.34-1.65,9.3-6.15,8,3.3,1.86-1.57,2.56.87,5.23l-1.94-.23,4.31,1.11c-11.28,2.37,2.19,11-7.89,13.78l-.8-1.32.86,2.87c-2-.25-2.78-1.57-5.14-2.49l-4.42,10.48,3.87-1c-.34,2.4,3.21,5.33-.25,7-4.81-6.46-1.45,3.5-6.53,2.51l-.87-2.87c-.68,3.27-.68,3.27,3.62,4.48.06,4.6-8.9,0-5.76,5.33.39-.86.8-1.71,1.16-2.59,2.72.07,5.5,3.2,4.72,4.94-.8.19-3.13.79-3.15-.75.42,3.75-3.48,7.78-2.33,9.78-1.94,1.26-4.69-.38-5.46-1.71,1.17,8.13-1.93,2.78-.79,10.93l-2.33-1,2,3.37-6.24,1.49,3.5-.06c-.39,2.39.76,4.41-1.56,6.51l-3.1-2.35c-.2,3.51-2.31,4.79-4.08,6.14s-3.19,2.79-1.9,6.68c-.8.16-1.55-1.18-1.91-1.86,3.32,7.59-7.85,1.73-3.35,9.82-1-.79-2.72-.76-3.63-1.36L802,342l-4.62-2,6.12,4.77-5.45-.37,1.88,1.86c-10.06-.9-4.77,5.58-12.93,6.51l6.17,1.76c4.36,7.11.33,11.62-4.48,16s-10.56,8.63-10.08,15.32L774,383.67l3.54,6.89c-4.69.84-3.34-3.18-6-3.45.5,5.94,6,5,4.8,11.15-4.41,1.48-2.95-2.49-4-4.55-.08,6.19-1.06,15.05-5.31,17.58.58.37,1.29,1,1.64.89.48,4.43-3.68,8.08-5.13,12.05-2.06-1.08-2-2.18-2-3.34-.9,1.25-3.2,2.45-1.61,4.62l-3.28-3.28c-2.13,2.55-1.31,9.79-6.23,8.24,1.93.49,5.28,2.26,3.85,4.66-7.62-2-.4,8.22-6.08,10.42-1.41-1.29-.34-4.39-.83-3.61-2.8,1.11-.44,4.5.85,7.33l-2.53-1.92c-.25,3.73-.43,7.53-.76,11.24-7.59-2.12-3.52,9.2-8.2,6-2,3.15,4.46-1.2,3.09,3.36-3.45-.38-.57,4.48-5,2l-.29-.72-1.17,3.07L730,468.2c-.35,3,3.06,7.1,6.33,9-3.67,1.08-3.44,5.51-8,4.46l-.6-1.44a6.14,6.14,0,0,1-3.44,4,40.88,40.88,0,0,1-5.6,2.12c-3.68,1.27-6.54,2.72-4.28,7.31-.82,0-1.88-.61-1.39-1.37l-2.52,3.84-2.72-2.77,1.31,9.42L707,501.46a35.49,35.49,0,0,0-4.58,7.84c-1.48,3-2.86,6.35-4.18,9.3l-.54-1.43c-.24,8-5.54,4.55-5.78,10.37a1.9,1.9,0,0,1-.64-1l-2.27,4-1.57-2.15c1.44,2.88-1.31,4-3.81,4.55s-4.78.31-2.26.65c1,2.86,1.68,7.19,4,9.32-2.48,4.37-3.41-.69-6.88.77-2.17,2.89,1.15,5.78-3.4,8.69L673,550.9c-.85,2.17-.11,4.35-1.51,7.25l-.49-1.46c.83,3.67-1.67,4-3.45,4.55s-2.89,1.44.54,6.2c-2.94.66-4,5-8,1.94a79,79,0,0,1-1.87,9.6c-.77,3-1.63,5.87-2.74,9-7.36-4-.39,1.43-6.53,1.79l3.76,2.36c-2.44,3.85-7.43,6.25-12.32,8.79s-9.85,5.09-12.17,9.54L624.49,608l2.64,4.56c-2.06,1.77-4.21,3.71-6.37,5.71s-4.28,4.13-6.45,6.09a142.71,142.71,0,0,0-10.88,11.11c0,3.6,1.4,10.4-2.8,12.57l-.15-.75a58.42,58.42,0,0,1-5.75,10.67,32.44,32.44,0,0,1-4,4.66,29,29,0,0,1-2.35,2,26.53,26.53,0,0,1-2.71,1.72c-1-1.65-2.55-2-2.78-3.46,2.22,4.79-3.19,3.68-4.52,4.85l3.87.8c1.42,4.62-3.9,4.27-7.06,2.86l.83,6a4.69,4.69,0,0,1-1.79-.81l1.22,2.13-5.55-2.69c.1.75-.42,2.29-.64,4.24a10.86,10.86,0,0,0,1.26,6.85c-1.63-1.13-5.21.2-4-2.43l-11,8.19,3,0c3.26,3,2.23,7.95-.7,7.95-.45-4.56-4.14-4.74-7.24-6.36.27,3,3.86,1.81,4.81,4.24.31,3.73-2.35,8.17-4.61,7.52l-.17-2.25c-1.25,3.34-7.51-1.42-9.55.91.32,4.53-3.4,3.44,2.07,8.79-2,3.9-4.57-2.86-6-2.55,1,4-4.9,5.82-7.94,3.31,2.79,5,.05,6-2.67,6.63s-5.44,1.06-2.78,5c-2-.68-3.91-1.32-5.89-2,1.51,2,4.55,6.84,3.06,9.3-3.7-.59-6-4.41-8.15-6l4.47,8.41A32.73,32.73,0,0,0,505,739.07,96.09,96.09,0,0,0,494,745.16c-1.82,1.12-3.63,2.26-5.47,3.35-.92.54-1.83,1.1-2.78,1.59s-1.91.95-2.88,1.39A39.62,39.62,0,0,1,470.51,755c-2.31,2.82-4.83,6.16-7.69,9.3s-6.08,6-9.91,7.58l.16-1.49-8.29,1.77L452,773c-1,1.81-1.28,4.06-2.85,4.79-2.43.26-5,.55-7.69,1s-5.33,1.08-8,1.81a27.75,27.75,0,0,0-14.09,8.78c-.8,6.36-2.94,4.73-5.15,2.73s-4.54-4.35-5.9.65c.1-1.15-.36-2.63-.35-3.81-4.95,6.45-7.82,9.57-12.06,18.34-3.42-10.17-4.28,2.13-5.86-3.32l1.12,4.27c-2.52-1.79-6.45-1.32-7.1-4.39l-1,6.21-1.91-4c-2,.61-4.85,2.61-7.82,3.51s-6.14.5-8.71-3.36a27.27,27.27,0,0,1-7.12,6.29,29.81,29.81,0,0,1-4.49,2.34c-1.58.69-3.22,1.31-4.9,1.88s-3.4,1.07-5.14,1.54c-.87.23-1.73.46-2.61.66l-2.65.51c-3.52.65-7,1.16-10.27,1.64-.81,4.07-4.5,5.27-7.34,6.36L315.78,823c-2.54,2.3-4.19,9.67-7.76,6.9a2.59,2.59,0,0,1,0-1.41c-2.82,1.72-6.28-.42-8.13,5-3.41.5-7.22-1.72-7.13-6.75.68,4.36-1.16,4.37-3.15,3.29a21.19,21.19,0,0,1-4.11-3.26s-10.86.77-27.67,1.52-39.57,1.44-63.63,1.4c-24.09.2-49.45-.3-72,.92S80,834.74,66.68,843.25c-2.58,3.77-7.08,5.32-7.25,10.69-3.37.66-2.2-7.11-3.6-3,0,.11,0,.21,0,.3s.08.24.1.37a4.28,4.28,0,0,1,.13.81,5.91,5.91,0,0,1-.19,1.78,24.19,24.19,0,0,1-1.55,4,29.38,29.38,0,0,0-1.74,4.49,7.72,7.72,0,0,0,.06,4.75c-1,.06-2,.09-2.78.18-1.68,2.72,4.48-2.2,2.09,2.93l3.24-7.51a8.8,8.8,0,0,1,2.34,6.7c3-2.43,7.29-12.66,10.79-6.7l-1.47.12c4,.77,1.06,5.73,1.55,7.24l-.88-.3,2.37,4.88c-1.88-3.34-7.93,1.89-5.55,2,4.32,3.51-.74-2.25,3.18-2.23,2.37.2.64,4.24-.11,6.65l4.24.76c-1.06,3.64-2.71-.9-2,3.33,2.1-.86,4.16-1.7,6.23-2.6-.62,4.77,1.1,4,3,3.18s4-1.67,4.21,3c-4.33,1.37-.35,3.22-1.62,6.12,3.21.52,6.43,1,9.65,1.46.65,1.49-3.1,2.39-1.55,2.2,1.3,3,3.42-1.69,4.37-1.43.34,2.78,7.17,1.2,5.79,7.41,5.86,5.38,4.13-7.43,9.62-2.86.19,3.94-5,.12-2.94,4.49l6.61-.38c-.86,1.76-2.2,6-4.49,4.77a44.54,44.54,0,0,1,11,7.73c3.27,3.06,6.28,6.26,9.33,9.19a57.48,57.48,0,0,0,4.63,4.06,28.09,28.09,0,0,0,4.9,3,16.83,16.83,0,0,0,11.37,1.31c2,4.76-1.94,2.93-3.88,5.82,6.32-2.59,10.34.32,14.21,3.74s7.54,7.59,12.81,7.53l.35-3.77a30.13,30.13,0,0,0,11.29,6.15,52.81,52.81,0,0,0,12.26,1.76c4.19.24,8.43.06,12.68.22,2.12.08,4.24.22,6.37.48a46.89,46.89,0,0,1,6.35,1.1l-2.09-2.57c2.16-3.75,5.82-4.28,8.45-6.09.51,1.89-1.59,8.16,3.17,6.4-1.07-1.31-3.18-2.64-2.66-4.51a25.55,25.55,0,0,0,2.93,1.59,31,31,0,0,0,3.28,1.23,50.29,50.29,0,0,0,7.43,1.74,104.34,104.34,0,0,0,17.45,1.14c12.45,0,26-1.19,38.13-.72,3.94-.92,7.9-1.94,11.93-2.73,2-.41,4-.79,6.07-1.15s4.09-.68,6.13-1.08c8.18-1.52,16.54-2.6,24.81-4.14,4.15-.74,8.31-1.4,12.42-2.24s8.17-1.77,12.2-2.75c2-.49,4-1,6-1.52s3.93-1.19,5.87-1.82q5.82-1.87,11.38-4.1c-4.53,1.77-5.46-7.74-1.36-6.8,7.22,5.93,11.14,3.78,14.8,1.13s7.1-5.89,13.77-2.77a38.36,38.36,0,0,1,12.27-5.91c2.14-.61,4.27-1.22,6.4-1.77l6.38-1.63a46,46,0,0,0,12-4.68,27,27,0,0,0,9.47-10l2.25,3.89c3.22.72,2.49-2.37,4.72-3.94l.5,1.15c3.27-.62,6.05-3,8.58-5s4.76-3.9,6.88-3.8l-2.15-4.56c3.13-2.11,3.58,2.53,5.63-1.79l1.11,2.27c.58-2.09,1.09-4.26,1.63-6.38,3.9,7.94,9.57-4.62,14.16-2.64,3.54-3.7,9.34-11.85,16.52-14.19,1.79,1.57,4.6,1.15,7.75.19,1.58-.46,3.2-1.11,4.81-1.73a35.71,35.71,0,0,1,4.74-1.49c2.19-1.8,4.62-3.79,7.22-5.86l4-3.16,2.1-1.61,2.1-1.67a147.59,147.59,0,0,1,18.1-12.42l-3.64-4.44c.92-.82,1.8-1.7,2.7-2.55.72,1,1.51,1.26,1.44,2.09,6.22,3.41,5.54-6.84,10.35-5.48-4.67-2.94-2.54,1-4.3,2.15-4.07-.3-5.15-6.45-.2-6.71l.7,1,.35-4.08c3,3.32,6.3,3.39,9.32,6.66,4.57-4.14,7.06-9.21,9.89-13.88s5.89-9.06,11.34-12.33c2.31,4.61,5.84-7,9.7,1.2,3.44-7.49-5.57-4.41-7.09-11.27,1.64-1.28,1.66-4.52,4.09-2.39.66,2.2,4.8,2.77,4.06,4.5l3.27-3.86c.81.17.8,1.8.78,2.6a13.23,13.23,0,0,1,4.53-5.86,38.57,38.57,0,0,1,6-3.46c4.13-2,8.2-4,9.72-9-1.7-2.71-3.22,1.9-4.94-.82,1.08-5.46,3.51-5.85,6.07-6a9.7,9.7,0,0,0,3.76-.74c1.16-.6,2.15-1.78,2.84-4.11l1.84,4.31c-.18-4.09-2-7.54,3.62-8.39,4.24,3,.31,5.7.47,8.95,2.35-2.12,6.91-8.77,1.9-10.23,1.39-3.85,5.62-1.69,8-2.2-.87-.91-4.9.18-5.09-3a24.29,24.29,0,0,0,8.18-4.89c2.54-2.25,4.95-4.81,7.2-7,.89.89,2.6,1.85,2.69,2.67C687.51,736.07,695.6,744.07,699.17,738Z"/><path class="cls-7" d="M849.56,451.15l-1.7,1.86a5.08,5.08,0,0,1,2.83,2.64Z"/><path class="cls-7" d="M795.14,551.11a7.09,7.09,0,0,0,.78,1.43A1.55,1.55,0,0,0,795.14,551.11Z"/><path class="cls-7" d="M788.83,579.66c.08-2.28-2-1.45-3.61-1.28A7.09,7.09,0,0,0,788.83,579.66Z"/><path class="cls-7" d="M862.58,387.15a3,3,0,0,0,1.84,1.39A3.35,3.35,0,0,0,862.58,387.15Z"/><path class="cls-7" d="M923.67,222.78a7.42,7.42,0,0,1-.93.45A1.32,1.32,0,0,0,923.67,222.78Z"/><path class="cls-7" d="M913.25,229.76a3.32,3.32,0,0,0,.1,2.09A1.72,1.72,0,0,0,913.25,229.76Z"/><path class="cls-7" d="M847.68,427.15a2.79,2.79,0,0,0,.71,2.34A2.29,2.29,0,0,0,847.68,427.15Z"/><path class="cls-7" d="M913.83,234.1l-1.24,2.17c.31.11.54.21.93.33Z"/><path class="cls-7" d="M925.12,220a10.34,10.34,0,0,1-1.45,2.78C925.33,222,925.62,221.09,925.12,220Z"/><path class="cls-7" d="M879.42,324.75c0,.1,0,.17,0,.29C880.84,327.56,880.38,326.13,879.42,324.75Z"/><path class="cls-7" d="M919,246.85l-.28.26,1.12,1.09Z"/><path class="cls-7" d="M929.94,210.41a1.85,1.85,0,0,0,.55,1.44,11.55,11.55,0,0,0,.94-1.18A6.42,6.42,0,0,1,929.94,210.41Z"/><path class="cls-7" d="M898.92,292.77a13.16,13.16,0,0,0-3.6-2.25C895.12,291.31,895.77,292.08,898.92,292.77Z"/><path class="cls-8" d="M727.81,329.29a18.48,18.48,0,0,0-2.15-.78A9.37,9.37,0,0,0,727.81,329.29Z"/><path class="cls-8" d="M688.81,403.53l-.69-1.27A1.19,1.19,0,0,0,688.81,403.53Z"/><path class="cls-8" d="M745.81,282a3.42,3.42,0,0,0,.51.23c.25-.74.6-1.74,1.13-3.38Z"/><path class="cls-8" d="M596.55,546.3l.55-.88C596.8,545.78,596.43,545.89,596.55,546.3Z"/><path class="cls-8" d="M656.35,466.1a2.65,2.65,0,0,1,.87,1.94C657.64,467.51,657.68,467,656.35,466.1Z"/><path class="cls-8" d="M799.72,265.41l-3.55.82C797.58,266.48,799.15,266.26,799.72,265.41Z"/><path class="cls-8" d="M795.55,210.87a5,5,0,0,0-.76,0A.87.87,0,0,0,795.55,210.87Z"/><path class="cls-8" d="M779.17,229a8.8,8.8,0,0,0,1.17,1.69C780.35,230,780.49,229.24,779.17,229Z"/><path class="cls-8" d="M781,231.47l-.69-.83C780.37,231,780.45,231.38,781,231.47Z"/><path class="cls-8" d="M63.33,740c-1.26-.46-2.93,1.7-4.62,3.41Z"/><path class="cls-8" d="M493.45,650l-.57-1.26A2.23,2.23,0,0,0,493.45,650Z"/><path class="cls-8" d="M54.45,767.62l-.8-.93C53.87,767.32,54.14,767.56,54.45,767.62Z"/><path class="cls-8" d="M802.54,295c2.85,2.22-1.61,4.49,1.48,5.16C803.87,298.43,806.75,296.67,802.54,295Z"/><path class="cls-8" d="M534.07,771.28l-.87.74A1.9,1.9,0,0,0,534.07,771.28Z"/><path class="cls-8" d="M54.45,767.62l.95,1c.06-.62.05-1.12.06-1.67A1.6,1.6,0,0,1,54.45,767.62Z"/><path class="cls-8" d="M358,715.68h.05c0-.24.08-.39.12-.66Z"/><path class="cls-8" d="M348.79,712.82c.46-.48.89-1,1.36-1.47C349.19,711.26,348.88,711.91,348.79,712.82Z"/><path class="cls-8" d="M58.71,743.44l-2.58,1.95A6.25,6.25,0,0,0,58.71,743.44Z"/><path class="cls-8" d="M263.79,733.53a2.82,2.82,0,0,0,.76-.49A.77.77,0,0,0,263.79,733.53Z"/><path class="cls-8" d="M660.83,461a4.47,4.47,0,0,0,1-.38C661.14,460.24,660.63,460.05,660.83,461Z"/><path class="cls-8" d="M705.41,561.76v0l.06,0S705.43,561.78,705.41,561.76Z"/><path class="cls-8" d="M703.94,556.4c-1.26.65-.13,3.32,1.47,5.36C706.05,560.72,706.05,559.39,703.94,556.4Z"/><path class="cls-8" d="M699.66,568a6,6,0,0,0,.58-.17A.91.91,0,0,0,699.66,568Z"/><path class="cls-8" d="M742.42,502.69l-.31-.15a1.51,1.51,0,0,0,.26.18Z"/><path class="cls-8" d="M736.14,516.79a3.79,3.79,0,0,0-1.79.3A3.07,3.07,0,0,0,736.14,516.79Z"/><path class="cls-8" d="M686.14,605.43s-.08-.07-.11-.1,0,.06,0,.09Z"/><path class="cls-8" d="M601.8,734c2.68-2.91,5.4-6.23,8.13-9.71s5.29-7.31,8-11c1.36-1.81,2.73-3.6,4.13-5.34l4.15-5.1a59.56,59.56,0,0,1,8.7-8.64c-2.44-7.08.82-10.59,3-15.2l6.84,5.74.67-4.94c3.1.61-.9,3.43,3.56,3.58l-3-4.9c2.55,1.95,8.64-6.28,8.74,3.09l5.42-5.87c1.79-2,3.47-4,5.21-6,2.49-2.51-4.31-6.41-.14-7.92,2.5,1.09.46,2.21,3.1,4,6.31-2.32,5.21-7.7,3.7-13.1s-3.56-11,1.31-13.91l.38,1.45c-.75-2.9,1.61-5.4.62-6.22-7.94-4.46,2.68,4.49-3.5,3.77-5.77-4.91-.75-5.67-5.41-9,3.67-.25,1.15-4,2.09-5.94,3,0,4.68-1.49,6.26-2.91s3.29-2.63,6.49-2c-.88-2.87-5.74-8.84-3.79-12.07,6.41,1.24,4.22,3.82,8.21,2.09l-3.25-3c2.32-2.07,3.06-1,4.69.3,2.05-2.56-3.31-5.61,1.24-7.39l2.26,4.31c.29-3.47,1.59-4.06,4.24-7.35,2,1.48,1,2.8-.33,3.42,6.66,1.73-.17-4.84,1.1-5.46-1.79-.77-4.11,1.16-6.92-2.43,1.81-1.29-2.54-6.95,2.6-5.31l2.28,4.21c-.46-5.49-3.31-4.93.84-8.12.13.4,1.12.89,1.83,1.47-1.49-2.83-.61-4.39,1-5.72s3.87-2.47,5.25-4.33L702,574c-.29-2.38-3.09-5.32-2.31-6-3.52.91-4.23-.38-7.95-2.41,8,.87-4.45-8.84,2.1-11.33,2.1,1.36,4,4.08.94,4,5.37,5.48,10.64,9,11.79,13.76-.34-2.75.1-5.46,2.5-3.38l-5.57-4.16a19,19,0,0,1,1.93-2.7c-3.47-2.72-7.5-1.47-8.41-5.48-.19-4,7,2.1,4.62.06,0-5.36-5.38-5.39-1.17-8,.29.68.89,2,.12,2,4-1.34,2.74-7.4,10.46-4.09,1.39,1.33,3.52,2.65,2.3,3.36l-1.08-.67c3.52,6.08,0-3.39,6,1.28-4-2-.92-5.44.8-6.83l-4.78-1.92c-10-13.28,8.65,5.22,10.22-1.62-.93-5.39-2,.73-3.9-3.27,1.09-1.05,2.77-1.27,4.19-1.83a3.53,3.53,0,0,0,2.54-3.84c2.33-.1,5.84-1,11,1.48-.87-3.37,5.88-5.87,1.59-9.7-6.28,1.74,3.3,6.67-5.66,7.86L730,526.69c1.89-3,1.45-8.34,4.37-9.6a5.9,5.9,0,0,1-3.5-1.31c.2-2.71-.78-5-1.35-7.06s-.69-3.87,1.07-5.7c4.87,1.65,2.89,3.85,2.31,5.89,5.13-1,1.74-2.82,5.32-6.5,4.13,1.69-1.65,2.86,2,5.27l1-5.53a8,8,0,0,0,.82.39c-6.41-3.91,2.34-3.46,1.73-7.42,3.38-7.11-5.25-12.33-8.91-18.62a7.52,7.52,0,0,1,5.69,1.43c-3.77.4-1.29,1.13.22,2.53.39-2.68,9-2.31,11.16.25-.33-4.73-4.19-.19-5.31-3.48l2.69-5.06c-3.79-.89-5.32.61-6.85-3.24,0-2.69,1.16-3.49,2.67-6.37,1.54,1.16,5.74,1.3,4.57,3.46,1.94-.89,3.08-3.09,0-5.38-4.59,1.92-.76-6.6-7.28-6.42l4.59-1.93c-.38.71,1.93,1.75.77,2.56,5.75,1.25-.37-3.28-.44-4.62,1.48-.74,3.11-3.56,5.3-3-1.09-1.64,1.07-3.71,4-3.12-.46-2-3.47-1.5-5-2.63l2.48-5.08c3.11.87,11.6,3.59,12.41,4.83-2-3.08-8.56-4.09-7.11-7,5.11,3.93,6-2.33,12,2.79a6,6,0,0,0,5.16-3.1,8.3,8.3,0,0,0,1-5.5c-4-3.39-3.66,2.07-8.39.14,1.06-8.39-11.94-13.5-7.68-18.3l-1.85,1c-1.47-4.44-1-3.84-4.34-7.26,5.56,3,17.31,1.46,18.07-4.8-2.83-1.47-6.82,1.35-11.21-1.16l.43-4.11c.58-.12,1.42.62,2,1.37-1-4.11,9.79-3.93,3.14-7.17l9.84-.74-4.18.21c-2.79-1.42-2.47-5.58-3.38-6.74-2.05-5,1-5.6,5.46-6.62-2.69-.06-8.84-.07-8.81-3.44,9.72,3,5.65-5.43,10.66-3.85.29-1.29,3.94-2.66,0-4l6,2c-8.39-2.76-6.7-7.26-7.24-11.21,11.31,4,.19-4.13,11.14-2.79-7.66-2.83-1.34-7.16-7.85-9.58.38-2.82,7.62-.6,10.32-.63l-2.57-2.05c2-.2,3.55-1.56,5-3.16a28.54,28.54,0,0,1,4.3-4.71l-6.24-4.62,3.42-.27c-1.66-.9-2.11-3.53-5.06-2.71l.79-1.43c-7.59-2-1.56-2.68-4.05-6.56a4.37,4.37,0,0,1,4,1.14c.45-1.52,4.19.08,7-.14-2.21.6-12.31-8.81-16.77-5.51-3.18-.47-4.86-3.39-3.13-4.56l7.08.71-6.79-3.49c-.44-2.57,4.2-2.55,5.45-4.27-.05,2,12.17,7.4,13.2,2.28.28,2.87,3.75,5.07,4.85,6.79.53-1,1.33-1.37,3.84,1-1.16-4.49-3.87-2.31-3.81-6.46,6.1,1.62,8.31,1,11.18-2l-5.08,1.58a5.4,5.4,0,0,1-1.55-.87c-.88.83-1.9.89-4.31.56.23-.77-6.64-6.3-2.76-6.12-10.44,1.81-5.94-8.53-12.27-7.28-1.7-.84-1.48-3.64,1.68-3.25,4,4.28,7.55-.95,11.75.5-1.52-1.6-5.14,1.6-7.12-.56,0-2,4.13-2.66,6.31-3.34l1,1.06,3.42-2.45c-3-1.14-5.86,1.84-6.86-1.29,1.45-.46.45-3.58,2.9-3,3.95,2.21,9.8,2.4,10.33,5,0-2.09.65-8.56-5.7-7.18l.72-2.32c-2.93,1-8.52,4.12-8.35-.76l1.23.29-4-4.21,3.48-.79c-1.58-.27-2.92-1.07-2.59-2.26,1.92,0,2.87-1,5.34-.38.35-3.6-2.85-3.92-4.57-4.73-.07-2.05,1.37-2.54,4.85-.92,1.33-2.56,1.41-7.43,5-8.68-2.12-4.15-1.44.51-5.26-2.38,5.72-.58,7.33-3.4,7.47-6.84s-1.14-7.48-1.39-10.56c-9.75,0-.82-1.81-9.3-4.33,2.79,1.78,8.25-4.4,10.1,1.23l-.48-3.33c5.56-1.32,3.07,5.9,10.76,3.79.26-3.64-9.78-7.66-5.61-11.29,6.51,2.47-1.72-3.58,5.52-1.37,2.3,1.25,1.37,2.31,1.72,3.59l1.43-.54c3.19-7.55-7.59-3.51-11.57-8.32-.11-4.87,5.91-2.94,9.13-2.74,1.43-.55.76-3.11-.8-4.62,3.66,3.52-5.08,4.74-9.13,2.77,8-.95,1.74-7-1.09-8.68-9.2,5.56-1.13,4.64-10.87,9.65,2.3,1.24,9.22,2.15,5.77,5.51-3-2.91-3.87-.43-5.09.07,4.09-.11,1.23,2.89,2.7,4.31-3.39.54-8.8-3.72-11-.15l9.21,2.21c-1.64,1.28-6.73-1.73-5,1.82-4.59-2.51-7.63-.71-8.44-5.24-8.77,3.82,3,8.54,5.79,13.12-.52-.51-1.75-.76-2.3-1.26,2.3,1.26,1.91,2.79,2.27,4.06-1.3,1.14-2.25.44-3.22-.51s-2-2.16-3.32-2c-.13,1.44-.33,2.86-.51,4.29a2.45,2.45,0,0,1-.68,0c1.06,1.33,1.7,2.55-.68,2.53-2.75-1.78-5.76-2.81-8-4.08l5.64,5.56c-3-1-6,2.72-7.62-.82l.07,6.76-6.37-.59c.82,1.76,2.05,2,3.16.31-1.85,1.94,9.1,12-3,8.44a13.06,13.06,0,0,1,2.71,6.93,34.76,34.76,0,0,0,1,7.46c-4.73-5.89-8.48,3.95-10-1.59-3.36,2.37,3.26,4.35,3.8,6.88-3.13,1.62-9-.63-10.82-3.42l2.26,3.32-1.23-.3,3,3.11c-3.88,1.82-6.36-.78-7.78,1.63l5.39,1.74-3.61,1.07c2.67-.11,3.45,1.66,3.48,3.65l-1.23-.31.55,2.53c-2.85-3-1.64,1.84-5.35-.08-.7,1.9-.63,2-.4,5.72l3.89.23c2.26,5.37-5.61-1.07-6.76,2.59l4.37.75c-8.58,3.65,1.86,10.05-3.78,12.89-.45-2.5-5.59-3.13-4.37-2.79.73,3.77-1.78,9,2.55,13.84-6.56-.3-8.49-.47-12.18,2.4-.25,2.71.17,3.22,3.56,5-3.11,1.87-.85,7.54-5.39,6.44,3.41,1.56-1.34,2.06,1.29,4.27l-1.92-.22,4.34,1c-10.8,1.79,3.29,9.06-6.28,11.19l-.92-1.1,1.14,2.37c-2-.24-2.88-1.34-5.29-2.13-.55,1.41-1,2.84-1.63,4.24l-1.75,4.2,3.73-.75c-.14,1.95,3.59,4.42.33,5.72-5.27-5.39-1.15,2.8-6.22,1.86l-1.09-2.36c-.4,2.64-.4,2.64,3.93,3.75.45,3.75-8.79-.27-5.18,4.18l.88-2.09c2.66.13,5.66,2.78,5.09,4.19-.76.14-3,.56-3.15-.7.8,3.1-2.59,6.29-1.26,8-1.75,1-4.61-.47-5.49-1.59,1,3.37.53,3.9.13,4.45s-.85,1.1,0,4.45l-2.36-.9,2.2,2.84-6,.95,3.42.1c-.19,1.93,1.1,3.63-1,5.24l-3.22-2.05c.18,5.72-7.94,3.72-4.66,10.25-.76.09-1.62-1-2-1.63,4,6.43-7.44,1-2.39,7.88-1.08-.71-2.72-.77-3.66-1.31l1.5,2.83-4.66-1.92,6.34,4.23-5.34-.61,2,1.63c-9.87-1.34-4.21,4.26-12.08,4.5l6.14,1.84c4.72,6.05,1.43,9.65-3,12.87s-9.6,6.28-8.64,11.8l-4.55-2.16,3.93,5.94c-4.46.3-3.46-2.88-6.09-3.33.9,4.9,6.22,4.63,5.48,9.58-4.15.83-3-2.3-4.18-4.08.37,5.06.05,12.28-3.85,14,.58.36,1.3.91,1.64.89.76,3.69-2.95,6.34-4.1,9.46-2-1.09-2-2-2.11-2.94-.75,1-3,1.67-1.29,3.61l-3.34-3c-1.93,1.83-.6,7.93-5.43,6.12,1.88.61,5.2,2.42,4,4.26-7.42-2.45.18,6.77-5.1,8-1.43-1.23-.62-3.68-1-3.08-2.6.6-.12,3.67,1.29,6.18l-2.53-1.88c0,3.07-.11,6.08-.17,9.14-7.34-2.67-2.75,7.25-7.39,4-1.66,2.39,4.15-.46,3.13,3.18-3.28-.74-.26,3.68-4.55,1.05l-.33-.63-.9,2.42-3.49-3.86c-.14,2.44,3.34,6.32,6.54,8.32-3.45.4-3.07,4.07-7.43,2.58l-.63-1.27c-.67,3-4.85,3.3-8.23,3.85s-6,1.36-3.57,5.53c-.77-.08-1.8-.78-1.38-1.35l-2.12,2.86-2.71-2.72c.6,2.69,1.09,5.3,1.62,8l-2.07-1.43c-3,2.64-5.24,8.38-7.36,13l-.57-1.29c.13,3.38-1.18,4.06-2.44,4.55s-2.54.73-2.56,3.13c-.46-.5-.6-.75-.63-1l-2,2.93L593,547.16c2.86,5.32-10.08,1.88-5.43,3.28,1.07,2.61,1.91,6.42,4.13,8.63-2.1,3.28-3.16-1.18-6.32-.59-1.92,2,1.22,5.06-2.91,6.65l-1.94-1.62c-.73,1.65,0,3.63-1.21,5.8l-.49-1.32c.84,3.23-1.39,3.06-3,3.23s-2.54.72.7,5.4c-2.68,0-3.53,3.41-7.31,0a66,66,0,0,1-3.79,14.94c-6.74-4.94-.33,1.14-5.89.17l3.44,2.81c-2.17,2.78-6.64,3.79-11,4.91-1.09.29-2.18.58-3.22.9a28.7,28.7,0,0,0-3,1.05,9.44,9.44,0,0,0-4.53,3.57l-3.31-3,2.39,4.53c-7.13,4.44-16.16,10-20.87,14.39,0,3.16,1,9.23-2.61,10.23l-.13-.7a37.31,37.31,0,0,1-5.09,8.09,17.34,17.34,0,0,1-8.07,5.11c-.84-1.72-2.16-2.37-2.34-3.75,1.84,4.81-2.79,2.51-3.94,3.24l3.3,1.65c1.14,4.48-3.42,2.88-6.09.84l.52,5.52a5.84,5.84,0,0,1-1.53-1.18l1,2.19-4.72-3.83c.13,1.38-2.06,4.8.21,10.08-1.36-1.42-4.43-1.09-3.36-3.18l-4.77,2.36-4.87,2.17,2.54.82c2.67,3.56,1.56,7.68-1,6.9-.17-4.18-3.35-5.36-5.9-7.59.13,2.79,3.2,2.59,3.92,5.05.14,3.48-2.27,6.91-4.15,5.76l-.06-2.11c-1.16,2.78-6.28-3.19-8.12-1.64,0,4.15-3.06,2.17,1.31,8.45-1.89,3-3.73-3.79-5-3.91.63,3.89-4.34,4.17-6.76,1.1,2.12,5.31-.28,5.43-2.6,5.33s-4.64-.5-2.63,3.77l-4.81-3.41c1.14,2.25,3.42,7.46,2.06,9.41-3-1.44-4.69-5.55-6.43-7.54l3.23,8.88a23.63,23.63,0,0,0-10.39-.2,37.64,37.64,0,0,0-4.79,1.3c-1.57.54-3.18,1-4.76,1.61a89.93,89.93,0,0,1-9.63,3.09,25,25,0,0,1-10.4.2c-1.07,1-2.16,2.15-3.32,3.36a42.73,42.73,0,0,1-3.66,3.58c-2.6,2.23-5.49,4.15-8.75,4.69l.25-1.39c-2.3,0-4.58,0-6.9-.18l2.94,1.27,2.92,1.18c-.93,1.53-1.34,3.64-2.7,3.94a52.53,52.53,0,0,0-13.08-1c-4.45.34-8.78,1.59-12.26,5.19-1.17,6-2.79,4-4.42,1.57s-3.33-5.19-4.88-.69c.18-1.08-.07-2.6,0-3.73-4.64,5-7.16,7.7-11.43,15.18-1.9-10.54-3.69,1.14-4.51-4.46l.54,4.36c-1.9-2.27-5.11-2.46-5.38-5.61-.43,2-.87,3.93-1.34,5.87l-1.19-4.3c-3.42.36-10,5.49-13.49-3-3.51,4-8.72,6.24-14.4,7.33a66.7,66.7,0,0,1-8.73.87c-1.46.05-2.91.11-4.34.09l-4.19-.12c-1,3.8-4.13,4.51-6.53,5.2l-3.22-5c-2.28,1.88-4.25,8.81-6.93,5.66a3,3,0,0,1,.14-1.39c-2.44,1.33-5.09-1.17-7.05,3.87-2.84-.06-5.78-2.66-5.31-7.66.22,4.42-1.29,4.22-2.83,2.91a20.2,20.2,0,0,1-3.11-3.7l-6.23-.48c-2-.13-4.41-.29-7.2-.43s-6-.43-9.44-.63c-13.91-.89-32.73-2.06-52.69-3s-41.08-1.43-59.91.28S74.58,730.55,63.33,740c-2.19,3.92-6,5.84-6.16,11.15-1.4.48-1.89-1.23-2.13-2.52a3.45,3.45,0,0,0-.35-1.32c-.13-.12-.24.2-.61,1.23,0,.38.21.9.24,1.45a6.49,6.49,0,0,1-.15,1.77,28.22,28.22,0,0,1-1.32,4.13c-1.07,3-2.37,6.18-1.43,9.25l-1.21.22c-.37.08-.83.13-1.13.23-1.39,2.84,3.77-2.6,1.74,2.68l2.75-7.69c1.4,1.65,2,3.54,1.89,6.39,2.52-2.66,6.18-13.09,9-7.47l-1.22.22c3.32.48.79,5.6,1.17,7.06l-.71-.24,1.88,4.64c-1.52-3.14-6.56,2.44-4.6,2.42,3.49,3.18-.59-2.17,2.64-2.43,2,0,.47,4.13-.19,6.58l3.47.47c-.94,3.67-2.21-.72-1.69,3.42,1.73-1,3.46-2,5.17-3-.61,4.77.82,3.9,2.38,3s3.29-1.9,3.38,2.72c-3.57,1.58-.36,3.22-1.47,6.16,2.62.35,5.23.67,7.85,1,.49,1.45-2.59,2.52-1.32,2.26,1,2.88,2.83-1.83,3.6-1.62.2,2.73,5.81.92,4.5,7.14,4.61,5.13,3.58-7.53,7.91-3.16,0,3.92-4.07.27-2.53,4.56l5.38-.58c-.76,1.78-2,6-3.8,4.88a25.11,25.11,0,0,1,4.59,3.31,43.53,43.53,0,0,1,4,4.12c2.54,2.94,4.85,6.18,7.19,9a30.72,30.72,0,0,0,7.4,7,11.37,11.37,0,0,0,9.07,1.32c1.38,4.78-1.68,2.9-3.36,5.75,5.17-2.44,8.28.34,11.22,3.87s5.67,7.69,9.89,7.76l.46-3.76c5.32,6.38,11.75,8,18.39,8.71s13.52.5,20.12,3.08l-1.51-2.69c1.94-3.6,4.89-3.9,7.09-5.54.3,1.92-1.75,8,2.14,6.58-.77-1.36-2.37-2.83-1.85-4.66a27.18,27.18,0,0,0,10.59,5.52,58.29,58.29,0,0,0,6.62,1.57c2.32.4,4.74.72,7.21,1s5,.53,7.57.73l7.73.57c2.58.2,5.15.48,7.68.77s5,.62,7.44,1.08c12.8-2.1,26.27-2.23,39.81-2.48q5.07-.17,10.13-.41c3.37-.18,6.73-.31,10-.69s6.61-.77,9.85-1.3c1.62-.27,3.23-.55,4.82-.89s3.16-.76,4.71-1.19c-3.8,1-3.75-8.51-.51-6.91,5.33,7.08,8.71,5.79,11.91,3.89s6.24-4.6,11.42-.16c6.81-4,14.16-3.63,21.3-4a28.8,28.8,0,0,0,10.27-2.11,19.61,19.61,0,0,0,8.74-7.54l1.5,4.22c2.6,1.42,2.27-1.78,4.25-2.84l.31,1.22c5.49.07,10.17-6.13,13.67-5l-1.38-4.85c2.79-1.35,2.74,3.2,4.83-.55l.71,2.43,2-5.73c2.53,8.47,8.46-2.16,12.13.79,3.24-2.9,8.93-9.17,15.22-9.68,2.75,3.89,9.62.88,14.93,1.14,2-1.17,4.3-2.46,6.72-3.78s4.94-2.83,7.59-4.22a133.39,133.39,0,0,1,16.67-7.41l-2.76-5,2.58-1.73c.52,1.14,1.19,1.55,1,2.3,5.1,4.71,5.44-5,9.51-2.57-3.81-3.87-2.3.27-3.94,1-3.51-1.27-3.91-7.27.42-6.3l.52,1.15.66-3.72c2.33,3.85,5.16,4.64,7.5,8.41,4.24-3,6.95-7,9.82-10.62s5.88-7.09,10.9-8.9c1.66,4.82,5.77-5,8.51,3.47,3.69-6.08-4.58-5.42-5.35-12.11,1.56-.78,1.83-3.75,3.82-1.21.41,2.19,4,3.71,3.24,5.12,1.07-.93,2.11-1.91,3.16-2.86.7.34.58,1.86.5,2.6,2.23-4.47,6.15-5.37,10-6.25s7.71-1.7,9.37-6.07c-1.33-2.89-3,1.06-4.33-1.84,1.31-4.85,3.48-4.68,5.77-4.31s4.68,1,6.28-3l1.33,4.36c.16-3.78-1.25-7.35,3.93-6.81,3.63,3.71-.15,5.26-.25,8.27a11.52,11.52,0,0,0,3.78-4c.86-1.79.87-3.69-1.32-4.9,1.47-3.27,5.13-.37,7.34-.33-.72-1-4.41-.87-4.39-3.88,5.13-.38,10.35-4.55,14.72-7.51.76,1,2.26,2.24,2.3,3C591.32,729.91,598.21,739,601.8,734Z"/><path class="cls-8" d="M744,501.22l-1.55,1.47a5.77,5.77,0,0,1,2.88,2.5Z"/><path class="cls-8" d="M695.17,582.68a7.07,7.07,0,0,0,.76,1.36C696,583.51,695.63,583.07,695.17,582.68Z"/><path class="cls-8" d="M689.59,607.06c.08-2-1.91-1.55-3.45-1.63A8.28,8.28,0,0,0,689.59,607.06Z"/><path class="cls-8" d="M752.73,447.25a3.45,3.45,0,0,0,1.88,1.27A3.86,3.86,0,0,0,752.73,447.25Z"/><path class="cls-8" d="M798.93,310.49a7.92,7.92,0,0,1-.88.38A1.26,1.26,0,0,0,798.93,310.49Z"/><path class="cls-8" d="M789.3,316.36a2.49,2.49,0,0,0,.31,1.74C790.05,317.48,789.77,316.89,789.3,316.36Z"/><path class="cls-8" d="M740.84,480.46a2.43,2.43,0,0,0,.82,2.05A2,2,0,0,0,740.84,480.46Z"/><path class="cls-8" d="M790.32,320l-1,1.81c.32.09.55.17.95.27Z"/><path class="cls-8" d="M800.14,308.17a7.44,7.44,0,0,1-1.21,2.32C800.51,309.83,800.73,309.07,800.14,308.17Z"/><path class="cls-8" d="M764.66,395.3c.06.08,0,.14.05.24C766.27,397.7,765.71,396.48,764.66,395.3Z"/><path class="cls-8" d="M796.67,330.6l-.26.21,1.22.92Z"/><path class="cls-8" d="M804,300.15a1.59,1.59,0,0,0,.7,1.19,9.69,9.69,0,0,0,.8-1A9,9,0,0,1,804,300.15Z"/><path class="cls-8" d="M781.12,368.89a15.55,15.55,0,0,0-3.73-1.94C777.25,367.61,778,368.26,781.12,368.89Z"/></g></svg>